<?xml version="1.0" standalone="no"?>
<!DOCTYPE svg PUBLIC "-//W3C//DTD SVG 1.1//EN" "http://www.w3.org/Graphics/SVG/1.1/DTD/svg11.dtd" >
<svg>
<metadata>
Created by FontForge 20090622 at Wed Oct 19 19:59:52 2016
 By deploy user
Kaiserzharkhan &#194;&#169; (http://truefonts.blogspot.com). 2013. Free for personal use
</metadata>
<defs>
<font id="Sociallogostfb" horiz-adv-x="1014" >
  <font-face 
    font-family="Social logos tfb"
    font-weight="400"
    font-stretch="normal"
    units-per-em="2048"
    panose-1="2 0 5 0 0 0 0 0 0 0"
    ascent="1638"
    descent="-410"
    x-height="1503"
    cap-height="1718"
    bbox="-1 0 8992 1718"
    underline-thickness="150"
    underline-position="-142"
    unicode-range="U+0020-U+F002"
  />
<missing-glyph horiz-adv-x="1024" 
 />
    <glyph glyph-name=".notdef" horiz-adv-x="1024" 
 />
    <glyph glyph-name=".null" horiz-adv-x="0" 
 />
    <glyph glyph-name="nonmarkingreturn" horiz-adv-x="508" 
 />
    <glyph glyph-name="space" unicode=" " horiz-adv-x="508" 
 />
    <glyph glyph-name="space" unicode="&#xa0;" horiz-adv-x="508" 
 />
    <glyph glyph-name="exclam" unicode="!" horiz-adv-x="2176" 
d="M1211 1683q156 0 203 -239q24 -46 24 -131q0 -71 -36 -263h489q155 -39 155 -155q0 -75 -71 -143l12 -60v-24q0 -63 -72 -131l12 -24v-59q-60 -146 -60 -156q0 -250 -274 -250h-585q-112 0 -179 47h-12q0 -95 -84 -95h-549q-69 0 -83 513q-24 161 -24 346q0 72 107 72
h526l83 -12q263 368 263 442v215q0 107 155 107zM1127 1576q12 -141 12 -203v-24q-65 -209 -298 -490q-84 -45 -84 -59v-609h72q86 -60 131 -60h633q137 0 191 84q0 36 12 36q0 16 -48 83q95 90 96 108v59l-36 48q95 68 95 155l-36 48v12q96 75 96 143q-17 60 -84 60h-573
v12q51 334 60 334q-59 286 -155 286h-12q-32 0 -72 -23zM149 847q59 -673 59 -763h466v763h-525z" />
    <glyph glyph-name="quotedbl" unicode="&#x22;" horiz-adv-x="1828" 
d="M1462 1713q278 -51 278 -323v-1023q0 -148 -122 -278h11q0 -18 -45 -45v-11l-22 11q-119 -44 -367 -44h-567q-501 0 -501 100q-100 136 -100 211v1135q0 185 245 267h1190zM305 1212v-723q0 -189 156 -189h834q156 20 156 134v879q-18 122 -123 122h-889
q-134 0 -134 -223zM572 1235q100 -15 100 -100v-12q0 -89 -89 -89h-11q-85 0 -100 112q0 71 100 89zM1117 1012q189 -28 189 -155v-379h-156q-22 0 -22 23v255q0 90 -67 112q-111 -11 -111 -56q-11 -270 -11 -311q11 0 11 -12l-22 -11h-145q-22 0 -22 23v489h178v-33
q150 55 178 55zM483 990h178v-489q0 -23 -22 -23h-145q-22 0 -22 34q11 429 11 478z" />
    <glyph glyph-name="numbersign" unicode="#" horiz-adv-x="6211" 
d="M4566 1698h1385q157 -23 157 -157v-1384q-24 -157 -157 -157h-1385q-142 28 -142 143v1412q28 143 142 143zM4738 1242v-43q0 -19 71 -72h71q115 0 115 115q0 114 -129 114q-128 0 -128 -114zM114 1356h243v-785q4 -29 28 -29q14 0 14 15l29 -15h314l28 15v-215h-656
v1014zM942 1356h28q129 -23 129 -114q0 -109 -143 -129q-75 0 -128 86v43q0 114 114 114zM1983 1356h243v-571h14q96 166 200 271h271q-172 -201 -257 -285v-15l300 -414h-285q-18 0 -186 286h-14l-43 -71v-215h-243v1014zM3981 1356h229v-628q0 -122 14 -386h-214l-14 86
q-96 -100 -200 -100h-72q-243 0 -285 328v100q67 314 300 314h71q92 0 171 -71v357zM3011 1070h86q285 -43 285 -271q14 0 14 -85v-86h-499v-14q57 -115 157 -115h100l171 15q28 -122 28 -143q-92 -43 -228 -43h-86q-261 0 -356 243q-15 77 -15 128q63 371 343 371z
M5323 928v99h-229v-685h229v357q19 172 128 172q129 -23 129 -129v-400h228v443q0 231 -271 257q-107 0 -214 -114zM1598 1042h43q257 0 257 -357v-343h-243v314q0 200 -114 200h-14q-96 0 -129 -114q0 -14 15 -14l-15 -100v-214q0 -14 15 -14q-15 -25 -15 -58h-228v685h214
q29 -4 29 -28q-15 0 -15 -14h15l-15 -29v-14q96 100 200 100zM4752 1027v-685h228v685h-228zM842 1027h242v-685h-242v685zM2897 785h271v14q0 129 -143 129q-128 -53 -128 -143zM3682 742v-86q0 -139 171 -157q105 0 128 186v43q-14 171 -142 171q-157 -19 -157 -157z" />
    <glyph glyph-name="dollar" unicode="$" horiz-adv-x="1908" 
d="M1043 1679q507 0 731 -423q35 -95 46 -239q0 -469 -617 -914q-139 -103 -194 -103h-11v23q114 120 114 183q0 22 -34 22q-213 -22 -274 -22h-80q-310 0 -572 251q-148 175 -148 365q0 475 560 754q240 103 479 103zM324 1199h57q23 -3 23 -23v-536q0 -115 103 -115
q65 0 80 126v274q0 12 -12 12q93 173 194 205h12q22 -11 34 -11v-503q15 -103 103 -103q80 34 80 103v297q0 84 182 217h23q17 0 35 -34v-468q0 -96 114 -115q0 12 11 12v-12q126 46 126 103l-23 12q-22 -12 -34 -12l-23 34v537q-15 103 -103 103h-11q-116 0 -297 -251v91
q0 160 -115 160h-22q-85 0 -286 -251v11q12 20 12 46h-12l12 23v34q0 137 -115 137h-23q-125 -27 -125 -103z" />
    <glyph glyph-name="percent" unicode="%" horiz-adv-x="1805" 
d="M-1 1683h1683v-1683h-1683v1683zM323 1429v-745q0 -258 298 -430q96 -44 184 -44h71q166 0 324 141q158 170 158 333v70q0 314 -368 473q-100 18 -141 18h-17q-183 0 -342 -132v290q0 70 -70 70h-53q-12 0 -44 -44zM832 1078h17q198 0 307 -201q35 -65 35 -141v-44
q0 -175 -228 -298q-61 -17 -105 -17h-35q-224 0 -316 245q-17 32 -17 70v71q0 154 184 271q77 44 158 44zM560 728q24 -106 96 -106h27q87 18 87 88v35q0 71 -105 88q-73 0 -105 -105z" />
    <glyph glyph-name="ampersand" unicode="&#x26;" horiz-adv-x="9367" 
d="M4093 1575q572 -58 572 -415q-450 -156 -537 -156q-36 104 -139 104h-34q-284 0 -381 -450v-104q55 -104 190 -104q191 40 191 104v17h-208q104 316 104 347h831v-18q0 -39 -17 -69v-17h17q118 365 536 623q320 138 502 138q432 0 572 -363v-52l-537 -173
q-39 121 -156 121h-17q-294 0 -398 -467v-35q0 -138 190 -156q132 0 208 104v17h-225l121 347h831q-170 -559 -571 -780q-287 -138 -502 -138h-87q-536 64 -536 485v34q0 107 52 260v17h-18q-106 -356 -433 -588q-295 -208 -588 -208h-104q-519 69 -519 450v104
q0 495 606 883q187 104 484 138zM215 1541h52q18 0 18 -18l34 18h1714q17 0 17 -18l35 18q35 -6 35 -35l-312 -467h-467q-329 -968 -329 -1004h-554q329 940 329 1004h-554q-156 173 -156 259q138 214 138 243zM2327 1541h503q17 0 17 -18l34 18h18l34 -18q0 18 18 18v-35
q0 -262 17 -1471h-589v17q0 22 18 173h-381q-127 -190 -139 -190h-571q932 1485 952 1488q31 18 69 18zM7711 1541v-18q-121 -367 -121 -398h-623q-35 0 -69 -138h536l-138 -398h-537q-34 -111 -34 -139h623v-17q-121 -367 -121 -398h-935q-24 0 -191 190q347 1025 468 1316
h1142zM7815 1541q980 0 1056 -173q121 -145 121 -329v-35q0 -554 -744 -917q-281 -52 -502 -52h-485l520 1506h34zM8161 1073q-17 -29 -190 -571h17q433 43 433 398q0 173 -260 173zM2449 1004q-70 -168 -225 -415h207v17q0 142 35 381v17h-17z" />
    <glyph glyph-name="quotesingle" unicode="'" horiz-adv-x="1907" 
d="M747 1693h353q451 0 634 -444q36 -107 36 -271v-616q0 -317 -81 -317q0 -45 -299 -45h-670q-372 0 -580 380q-63 124 -63 308v290q0 498 416 670q100 45 254 45zM1028 1249v-18q0 -21 81 -163q36 -134 36 -208q0 -190 -117 -389v-18q0 -55 54 -82h36q129 0 199 426v72
q0 258 -163 453l-45 9q-81 -16 -81 -82zM638 1123v-18q0 -109 109 -109h18q82 0 100 118q0 89 -127 108q-100 -31 -100 -99zM548 453q0 -53 63 -82h9q99 0 154 181q63 111 63 145v18q-14 82 -81 82q-77 0 -136 -172q-72 -111 -72 -172z" />
    <glyph glyph-name="parenleft" unicode="(" horiz-adv-x="4495" 
d="M140 1716h4252v-1701h-4252v1701zM2535 877q0 -125 120 -239q81 96 180 96h60q60 0 156 -84h23q96 143 96 239q-69 300 -287 300h-60q-228 0 -288 -312zM3194 913v-60q0 -237 324 -287q121 0 227 132v143q0 84 -84 84h-155q-19 0 -48 -48q0 -83 96 -83v-24h-60
q-108 15 -108 107v12q15 108 108 108h24q40 0 83 -36h36q96 0 96 108q0 77 -203 120h-48q-288 -60 -288 -276zM667 1117v-443q0 -96 108 -96q84 24 84 96v132l191 -216l60 -12q68 0 84 132v311q0 156 -96 156h-36q-16 0 -60 -60v-156h-24q0 34 -179 216h-72q-16 0 -60 -60z
M1218 1045v-323q0 -132 96 -132h251q19 0 48 48v72q-27 60 -120 60h-83v24q0 23 143 35l24 60q0 64 -167 72v36h119q96 6 96 96q0 84 -120 84h-179q-108 0 -108 -132zM1649 1093v-12q0 -96 156 -96v-347q33 -60 96 -60q96 0 96 168v251h47q66 0 96 60v60q-30 60 -96 60h-287
q-108 0 -108 -84zM2176 1093v-443q0 -16 60 -60h276q59 31 59 96q0 75 -119 84h-84v287q0 93 -60 120h-48q-84 0 -84 -84zM2847 997q120 -12 120 -108v-48q-40 -83 -132 -83q-66 27 -96 83v48q16 108 108 108z" />
    <glyph glyph-name="parenright" unicode=")" horiz-adv-x="1785" 
d="M530 1713q66 0 200 -207l15 -8q202 138 407 138h62q235 0 323 -261l15 -115q0 -356 -407 -738q-263 -207 -484 -207q-222 0 -315 192q-31 88 -31 161q0 196 169 438v16q-52 76 -61 76q-174 -224 -208 -407h-7v16q0 103 207 407q-169 218 -169 253v8q0 159 253 238h31z
M307 1467h8q111 169 223 169v8h-46q-185 -56 -185 -177zM346 1406q6 0 54 -54q0 71 169 161q28 16 61 16v7q-37 62 -61 62q-89 0 -208 -154q-15 -25 -15 -38zM761 1483v-16q40 -69 61 -69q160 85 277 85h53q254 -28 254 -254q0 -278 -338 -530q-400 173 -400 177
q-153 200 -153 215h-8q-153 -203 -153 -392q0 -233 230 -315q84 -15 115 -15q386 0 715 522q84 215 84 323q0 275 -269 361l-107 7q-146 0 -361 -99zM530 1429q216 -312 269 -323h69q57 0 62 23q-242 326 -262 361q-67 0 -138 -61zM830 1367q192 -226 192 -292
q38 -329 46 -361q300 239 300 484q0 193 -216 238q-42 8 -61 8q-141 0 -261 -77zM830 1068l-54 7v-23q0 -76 -46 -138q197 -92 207 -92q6 23 54 38q-33 231 -46 238q-58 -30 -115 -30zM77 169h31v-138h38v-16q0 -15 -15 -15h-54v169zM300 169l15 -8l15 8l24 -92h7
q10 92 31 92q0 -8 8 -8q0 8 7 8q0 -8 8 -8l-46 -161h-15q-22 0 -54 169zM538 169l8 -15v-23h-31v-31h23v-31h-23v-38h31v-31h-70v161h23zM638 169h30v-123q0 -40 -23 -46h-38v31q31 0 31 15v123zM799 169q49 0 54 -100q0 -69 -62 -69q-53 0 -53 77v23q0 69 61 69zM930 169h7
q16 -2 16 -15v-123h15q15 0 15 15v123l16 -8l15 8v-123q0 -46 -46 -46h-23q-31 0 -31 92v62q3 15 16 15zM1091 169l15 -8q8 0 8 8q61 -12 61 -31v-38q-15 -19 -15 -31q0 -8 23 -69h-38q0 7 -16 61h-7v-61h-23l-16 8l8 15v77q0 8 -8 8l8 15v23l-8 15q8 0 8 8zM1283 169
q31 -65 31 -85h7v85h8l15 -8q0 8 8 8v-169h-31q-30 77 -30 92h-8v-69l8 -15l-16 -8h-23v161zM1475 169q0 -8 8 -8q0 8 7 8l39 -169h-39v31h-23q-15 0 -15 -31h-31q24 169 54 169zM1606 169h7q16 -2 16 -15v-123h30v-31h-69v154q3 15 16 15zM223 161q15 -2 15 -15v-15h-23
q-15 0 -15 15zM784 138q-6 -54 -16 -54q11 -53 23 -53h16l7 38v46q0 11 -23 23h-7zM1122 138v-46q15 8 23 8v23q0 15 -16 15h-7zM1467 108v-54h16l-8 54h-8zM208 108h23v-100h-23v100z" />
    <glyph glyph-name="asterisk" unicode="*" horiz-adv-x="4026" 
d="M912 1714h24q104 0 115 -139q-11 -139 -115 -139h-35q-116 18 -116 151q26 127 127 127zM1723 1714v-11l23 11h128l23 -11q0 11 12 11l11 -23v-440h12q76 46 173 46q258 0 290 -440v-405h-220v475q0 104 -93 162h-58q-95 0 -115 -104l11 -24v-509h-220v34q0 12 12 12
l-12 23v1170q4 23 23 23zM3241 1714h208v-463h12q87 46 162 46q195 0 278 -231q23 -88 23 -163v-34q-42 -429 -324 -429q-82 8 -162 70v-58h-197v1262zM1214 1448h208v-139q4 -23 23 -23q12 0 12 11l81 -11h46v-174h-162v-382q0 -63 58 -93h23q29 0 104 23v-174
q0 -38 -150 -46h-46q-209 0 -209 394v220q0 12 12 12q-12 20 -12 46h-69q-24 0 -24 23v81l12 81l23 -11q70 8 70 23q0 11 -12 11l12 58v70zM333 1297h12q98 0 174 -46q29 0 208 46v-197q-22 0 -81 -23l12 -23v-93q-61 -278 -278 -278q-21 0 -58 -69q0 -86 278 -139
q116 -81 116 -185q-31 -278 -221 -278q0 -12 -11 -12v12l-23 -12h-151q-261 0 -301 220v46q0 134 162 197v12q-16 1 -46 58v104q0 42 46 93q-150 74 -150 266q0 265 312 301zM820 1297l23 -11h58q26 0 46 11q20 -11 47 -11l23 11l11 -23v-822h-208v845zM2488 1297l23 -11h35
q41 0 104 11q20 -11 46 -11l-11 -23h11l-11 -24v-370q0 -220 115 -220q50 0 128 46v579l11 23l24 -11h92q12 0 12 11l23 -11h23l23 11l12 -23v-822h-209v58q-121 -70 -173 -70q-215 0 -278 243q-12 80 -12 128v463zM229 961q0 -104 127 -104q105 0 105 128q-12 139 -116 139
q-116 0 -116 -163zM3449 1042v-324q52 -69 128 -69q127 35 127 220v34q0 186 -116 186h-23q-27 0 -116 -47zM206 255q0 -93 162 -93q151 0 151 104q0 93 -163 93q-150 0 -150 -104zM901 359q10 0 93 -35q-18 -46 -35 -46q-35 12 -35 23q-46 -17 -46 -35v-11l104 -70
q23 -38 23 -69q-15 -104 -104 -104q-104 23 -104 57v12q0 17 46 35q12 -47 69 -47l24 35v23q-128 77 -128 105v58q49 69 93 69zM1179 359q142 0 162 -174q-18 -173 -162 -173q-162 26 -162 150v23q20 174 162 174zM1503 359q81 -12 81 -35v-58q-38 24 -69 24h-23
q-70 -35 -70 -105v-11q0 -93 93 -93q31 0 69 23v-81l-81 -11q-127 0 -150 173q0 135 150 174zM1851 359h23q15 0 139 -336h-81q-12 70 -35 70h-81q-23 0 -35 -70h-69q108 336 139 336zM2465 359q81 0 81 -46q-12 -23 -12 -35q12 0 12 -12h-12q-38 24 -69 24h-24
q-69 -41 -69 -116q22 -93 93 -93h34l35 23l12 -23h-12l12 -23v-12q-12 -34 -70 -34h-23q-129 0 -151 185q0 118 163 162zM2719 359q163 -27 163 -139v-69q0 -139 -174 -139q-116 0 -151 173q0 136 162 174zM3299 359h34q11 0 186 -220v208h46q23 -3 23 -23v-289
q0 -23 -23 -23h-23q-162 189 -162 220h-12v-209h-69v336zM3762 359q85 0 139 -81l-58 -35q0 18 -46 47h-58q-58 -30 -58 -93v-23q0 -88 92 -105q35 0 70 70h-70v58h139v-23q0 -162 -150 -162h-12q-106 0 -139 150v23q23 174 151 174zM1631 347h46q23 -3 23 -23v-92
q0 -26 -11 -47q11 -20 11 -46l-11 -23q11 -20 11 -47h-11l11 -23v-23h-69v324zM2024 347h70v-266h93v-23l-12 -23q12 0 12 -12h-163v324zM2916 347h81q163 0 163 -150v-46q0 -107 -151 -128h-93v324zM3194 347h58v-324h-58v324zM1086 185q0 -104 93 -104t93 93v46
q-35 70 -105 70q-81 -27 -81 -105zM2627 208l11 -23q0 -11 -11 -11q0 -44 69 -93h58q70 46 70 104q-24 105 -105 105q-46 0 -92 -82zM2974 290v-209h23q63 0 93 58v58q0 93 -93 93h-23zM1851 232q-23 -74 -23 -93h57q0 85 -34 93z" />
    <glyph glyph-name="plus" unicode="+" 
 />
    <glyph glyph-name="comma" unicode="," horiz-adv-x="557" 
 />
    <glyph glyph-name="hyphen" unicode="-" horiz-adv-x="670" 
 />
    <glyph glyph-name="hyphen" unicode="&#xad;" horiz-adv-x="670" 
 />
    <glyph glyph-name="period" unicode="." horiz-adv-x="557" 
 />
    <glyph glyph-name="slash" unicode="/" horiz-adv-x="569" 
 />
    <glyph glyph-name="zero" unicode="0" horiz-adv-x="2176" 
d="M1211 1683q156 0 203 -239q24 -46 24 -131q0 -71 -36 -263h489q155 -39 155 -155q0 -75 -71 -143l12 -60v-24q0 -63 -72 -131l12 -24v-59q-60 -146 -60 -156q0 -250 -274 -250h-585q-112 0 -179 47h-12q0 -95 -84 -95h-549q-69 0 -83 513q-24 161 -24 346q0 72 107 72
h526l83 -12q263 368 263 442v215q0 107 155 107zM1127 1576q12 -141 12 -203v-24q-65 -209 -298 -490q-84 -45 -84 -59v-609h72q86 -60 131 -60h633q137 0 191 84q0 36 12 36q0 16 -48 83q95 90 96 108v59l-36 48q95 68 95 155l-36 48v12q96 75 96 143q-17 60 -84 60h-573
v12q51 334 60 334q-59 286 -155 286h-12q-32 0 -72 -23zM149 847q59 -673 59 -763h466v763h-525z" />
    <glyph glyph-name="one" unicode="1" horiz-adv-x="1828" 
d="M1462 1713q278 -51 278 -323v-1023q0 -148 -122 -278h11q0 -18 -45 -45v-11l-22 11q-119 -44 -367 -44h-567q-501 0 -501 100q-100 136 -100 211v1135q0 185 245 267h1190zM305 1212v-723q0 -189 156 -189h834q156 20 156 134v879q-18 122 -123 122h-889
q-134 0 -134 -223zM572 1235q100 -15 100 -100v-12q0 -89 -89 -89h-11q-85 0 -100 112q0 71 100 89zM1117 1012q189 -28 189 -155v-379h-156q-22 0 -22 23v255q0 90 -67 112q-111 -11 -111 -56q-11 -270 -11 -311q11 0 11 -12l-22 -11h-145q-22 0 -22 23v489h178v-33
q150 55 178 55zM483 990h178v-489q0 -23 -22 -23h-145q-22 0 -22 34q11 429 11 478z" />
    <glyph glyph-name="two" unicode="2" horiz-adv-x="6211" 
d="M4566 1698h1385q157 -23 157 -157v-1384q-24 -157 -157 -157h-1385q-142 28 -142 143v1412q28 143 142 143zM4738 1242v-43q0 -19 71 -72h71q115 0 115 115q0 114 -129 114q-128 0 -128 -114zM114 1356h243v-785q4 -29 28 -29q14 0 14 15l29 -15h314l28 15v-215h-656
v1014zM942 1356h28q129 -23 129 -114q0 -109 -143 -129q-75 0 -128 86v43q0 114 114 114zM1983 1356h243v-571h14q96 166 200 271h271q-172 -201 -257 -285v-15l300 -414h-285q-18 0 -186 286h-14l-43 -71v-215h-243v1014zM3981 1356h229v-628q0 -122 14 -386h-214l-14 86
q-96 -100 -200 -100h-72q-243 0 -285 328v100q67 314 300 314h71q92 0 171 -71v357zM3011 1070h86q285 -43 285 -271q14 0 14 -85v-86h-499v-14q57 -115 157 -115h100l171 15q28 -122 28 -143q-92 -43 -228 -43h-86q-261 0 -356 243q-15 77 -15 128q63 371 343 371z
M5323 928v99h-229v-685h229v357q19 172 128 172q129 -23 129 -129v-400h228v443q0 231 -271 257q-107 0 -214 -114zM1598 1042h43q257 0 257 -357v-343h-243v314q0 200 -114 200h-14q-96 0 -129 -114q0 -14 15 -14l-15 -100v-214q0 -14 15 -14q-15 -25 -15 -58h-228v685h214
q29 -4 29 -28q-15 0 -15 -14h15l-15 -29v-14q96 100 200 100zM4752 1027v-685h228v685h-228zM842 1027h242v-685h-242v685zM2897 785h271v14q0 129 -143 129q-128 -53 -128 -143zM3682 742v-86q0 -139 171 -157q105 0 128 186v43q-14 171 -142 171q-157 -19 -157 -157z" />
    <glyph glyph-name="three" unicode="3" horiz-adv-x="1908" 
d="M1043 1679q507 0 731 -423q35 -95 46 -239q0 -469 -617 -914q-139 -103 -194 -103h-11v23q114 120 114 183q0 22 -34 22q-213 -22 -274 -22h-80q-310 0 -572 251q-148 175 -148 365q0 475 560 754q240 103 479 103zM324 1199h57q23 -3 23 -23v-536q0 -115 103 -115
q65 0 80 126v274q0 12 -12 12q93 173 194 205h12q22 -11 34 -11v-503q15 -103 103 -103q80 34 80 103v297q0 84 182 217h23q17 0 35 -34v-468q0 -96 114 -115q0 12 11 12v-12q126 46 126 103l-23 12q-22 -12 -34 -12l-23 34v537q-15 103 -103 103h-11q-116 0 -297 -251v91
q0 160 -115 160h-22q-85 0 -286 -251v11q12 20 12 46h-12l12 23v34q0 137 -115 137h-23q-125 -27 -125 -103z" />
    <glyph glyph-name="four" unicode="4" horiz-adv-x="1805" 
d="M-1 1683h1683v-1683h-1683v1683zM323 1429v-745q0 -258 298 -430q96 -44 184 -44h71q166 0 324 141q158 170 158 333v70q0 314 -368 473q-100 18 -141 18h-17q-183 0 -342 -132v290q0 70 -70 70h-53q-12 0 -44 -44zM832 1078h17q198 0 307 -201q35 -65 35 -141v-44
q0 -175 -228 -298q-61 -17 -105 -17h-35q-224 0 -316 245q-17 32 -17 70v71q0 154 184 271q77 44 158 44zM560 728q24 -106 96 -106h27q87 18 87 88v35q0 71 -105 88q-73 0 -105 -105z" />
    <glyph glyph-name="five" unicode="5" horiz-adv-x="9367" 
d="M4093 1575q572 -58 572 -415q-450 -156 -537 -156q-36 104 -139 104h-34q-284 0 -381 -450v-104q55 -104 190 -104q191 40 191 104v17h-208q104 316 104 347h831v-18q0 -39 -17 -69v-17h17q118 365 536 623q320 138 502 138q432 0 572 -363v-52l-537 -173
q-39 121 -156 121h-17q-294 0 -398 -467v-35q0 -138 190 -156q132 0 208 104v17h-225l121 347h831q-170 -559 -571 -780q-287 -138 -502 -138h-87q-536 64 -536 485v34q0 107 52 260v17h-18q-106 -356 -433 -588q-295 -208 -588 -208h-104q-519 69 -519 450v104
q0 495 606 883q187 104 484 138zM215 1541h52q18 0 18 -18l34 18h1714q17 0 17 -18l35 18q35 -6 35 -35l-312 -467h-467q-329 -968 -329 -1004h-554q329 940 329 1004h-554q-156 173 -156 259q138 214 138 243zM2327 1541h503q17 0 17 -18l34 18h18l34 -18q0 18 18 18v-35
q0 -262 17 -1471h-589v17q0 22 18 173h-381q-127 -190 -139 -190h-571q932 1485 952 1488q31 18 69 18zM7711 1541v-18q-121 -367 -121 -398h-623q-35 0 -69 -138h536l-138 -398h-537q-34 -111 -34 -139h623v-17q-121 -367 -121 -398h-935q-24 0 -191 190q347 1025 468 1316
h1142zM7815 1541q980 0 1056 -173q121 -145 121 -329v-35q0 -554 -744 -917q-281 -52 -502 -52h-485l520 1506h34zM8161 1073q-17 -29 -190 -571h17q433 43 433 398q0 173 -260 173zM2449 1004q-70 -168 -225 -415h207v17q0 142 35 381v17h-17z" />
    <glyph glyph-name="six" unicode="6" horiz-adv-x="1907" 
d="M747 1693h353q451 0 634 -444q36 -107 36 -271v-616q0 -317 -81 -317q0 -45 -299 -45h-670q-372 0 -580 380q-63 124 -63 308v290q0 498 416 670q100 45 254 45zM1028 1249v-18q0 -21 81 -163q36 -134 36 -208q0 -190 -117 -389v-18q0 -55 54 -82h36q129 0 199 426v72
q0 258 -163 453l-45 9q-81 -16 -81 -82zM638 1123v-18q0 -109 109 -109h18q82 0 100 118q0 89 -127 108q-100 -31 -100 -99zM548 453q0 -53 63 -82h9q99 0 154 181q63 111 63 145v18q-14 82 -81 82q-77 0 -136 -172q-72 -111 -72 -172z" />
    <glyph glyph-name="seven" unicode="7" horiz-adv-x="4495" 
d="M140 1716h4252v-1701h-4252v1701zM2535 877q0 -125 120 -239q81 96 180 96h60q60 0 156 -84h23q96 143 96 239q-69 300 -287 300h-60q-228 0 -288 -312zM3194 913v-60q0 -237 324 -287q121 0 227 132v143q0 84 -84 84h-155q-19 0 -48 -48q0 -83 96 -83v-24h-60
q-108 15 -108 107v12q15 108 108 108h24q40 0 83 -36h36q96 0 96 108q0 77 -203 120h-48q-288 -60 -288 -276zM667 1117v-443q0 -96 108 -96q84 24 84 96v132l191 -216l60 -12q68 0 84 132v311q0 156 -96 156h-36q-16 0 -60 -60v-156h-24q0 34 -179 216h-72q-16 0 -60 -60z
M1218 1045v-323q0 -132 96 -132h251q19 0 48 48v72q-27 60 -120 60h-83v24q0 23 143 35l24 60q0 64 -167 72v36h119q96 6 96 96q0 84 -120 84h-179q-108 0 -108 -132zM1649 1093v-12q0 -96 156 -96v-347q33 -60 96 -60q96 0 96 168v251h47q66 0 96 60v60q-30 60 -96 60h-287
q-108 0 -108 -84zM2176 1093v-443q0 -16 60 -60h276q59 31 59 96q0 75 -119 84h-84v287q0 93 -60 120h-48q-84 0 -84 -84zM2847 997q120 -12 120 -108v-48q-40 -83 -132 -83q-66 27 -96 83v48q16 108 108 108z" />
    <glyph glyph-name="eight" unicode="8" horiz-adv-x="1785" 
d="M530 1713q66 0 200 -207l15 -8q202 138 407 138h62q235 0 323 -261l15 -115q0 -356 -407 -738q-263 -207 -484 -207q-222 0 -315 192q-31 88 -31 161q0 196 169 438v16q-52 76 -61 76q-174 -224 -208 -407h-7v16q0 103 207 407q-169 218 -169 253v8q0 159 253 238h31z
M307 1467h8q111 169 223 169v8h-46q-185 -56 -185 -177zM346 1406q6 0 54 -54q0 71 169 161q28 16 61 16v7q-37 62 -61 62q-89 0 -208 -154q-15 -25 -15 -38zM761 1483v-16q40 -69 61 -69q160 85 277 85h53q254 -28 254 -254q0 -278 -338 -530q-400 173 -400 177
q-153 200 -153 215h-8q-153 -203 -153 -392q0 -233 230 -315q84 -15 115 -15q386 0 715 522q84 215 84 323q0 275 -269 361l-107 7q-146 0 -361 -99zM530 1429q216 -312 269 -323h69q57 0 62 23q-242 326 -262 361q-67 0 -138 -61zM830 1367q192 -226 192 -292
q38 -329 46 -361q300 239 300 484q0 193 -216 238q-42 8 -61 8q-141 0 -261 -77zM830 1068l-54 7v-23q0 -76 -46 -138q197 -92 207 -92q6 23 54 38q-33 231 -46 238q-58 -30 -115 -30zM77 169h31v-138h38v-16q0 -15 -15 -15h-54v169zM300 169l15 -8l15 8l24 -92h7
q10 92 31 92q0 -8 8 -8q0 8 7 8q0 -8 8 -8l-46 -161h-15q-22 0 -54 169zM538 169l8 -15v-23h-31v-31h23v-31h-23v-38h31v-31h-70v161h23zM638 169h30v-123q0 -40 -23 -46h-38v31q31 0 31 15v123zM799 169q49 0 54 -100q0 -69 -62 -69q-53 0 -53 77v23q0 69 61 69zM930 169h7
q16 -2 16 -15v-123h15q15 0 15 15v123l16 -8l15 8v-123q0 -46 -46 -46h-23q-31 0 -31 92v62q3 15 16 15zM1091 169l15 -8q8 0 8 8q61 -12 61 -31v-38q-15 -19 -15 -31q0 -8 23 -69h-38q0 7 -16 61h-7v-61h-23l-16 8l8 15v77q0 8 -8 8l8 15v23l-8 15q8 0 8 8zM1283 169
q31 -65 31 -85h7v85h8l15 -8q0 8 8 8v-169h-31q-30 77 -30 92h-8v-69l8 -15l-16 -8h-23v161zM1475 169q0 -8 8 -8q0 8 7 8l39 -169h-39v31h-23q-15 0 -15 -31h-31q24 169 54 169zM1606 169h7q16 -2 16 -15v-123h30v-31h-69v154q3 15 16 15zM223 161q15 -2 15 -15v-15h-23
q-15 0 -15 15zM784 138q-6 -54 -16 -54q11 -53 23 -53h16l7 38v46q0 11 -23 23h-7zM1122 138v-46q15 8 23 8v23q0 15 -16 15h-7zM1467 108v-54h16l-8 54h-8zM208 108h23v-100h-23v100z" />
    <glyph glyph-name="nine" unicode="9" horiz-adv-x="4026" 
d="M912 1714h24q104 0 115 -139q-11 -139 -115 -139h-35q-116 18 -116 151q26 127 127 127zM1723 1714v-11l23 11h128l23 -11q0 11 12 11l11 -23v-440h12q76 46 173 46q258 0 290 -440v-405h-220v475q0 104 -93 162h-58q-95 0 -115 -104l11 -24v-509h-220v34q0 12 12 12
l-12 23v1170q4 23 23 23zM3241 1714h208v-463h12q87 46 162 46q195 0 278 -231q23 -88 23 -163v-34q-42 -429 -324 -429q-82 8 -162 70v-58h-197v1262zM1214 1448h208v-139q4 -23 23 -23q12 0 12 11l81 -11h46v-174h-162v-382q0 -63 58 -93h23q29 0 104 23v-174
q0 -38 -150 -46h-46q-209 0 -209 394v220q0 12 12 12q-12 20 -12 46h-69q-24 0 -24 23v81l12 81l23 -11q70 8 70 23q0 11 -12 11l12 58v70zM333 1297h12q98 0 174 -46q29 0 208 46v-197q-22 0 -81 -23l12 -23v-93q-61 -278 -278 -278q-21 0 -58 -69q0 -86 278 -139
q116 -81 116 -185q-31 -278 -221 -278q0 -12 -11 -12v12l-23 -12h-151q-261 0 -301 220v46q0 134 162 197v12q-16 1 -46 58v104q0 42 46 93q-150 74 -150 266q0 265 312 301zM820 1297l23 -11h58q26 0 46 11q20 -11 47 -11l23 11l11 -23v-822h-208v845zM2488 1297l23 -11h35
q41 0 104 11q20 -11 46 -11l-11 -23h11l-11 -24v-370q0 -220 115 -220q50 0 128 46v579l11 23l24 -11h92q12 0 12 11l23 -11h23l23 11l12 -23v-822h-209v58q-121 -70 -173 -70q-215 0 -278 243q-12 80 -12 128v463zM229 961q0 -104 127 -104q105 0 105 128q-12 139 -116 139
q-116 0 -116 -163zM3449 1042v-324q52 -69 128 -69q127 35 127 220v34q0 186 -116 186h-23q-27 0 -116 -47zM206 255q0 -93 162 -93q151 0 151 104q0 93 -163 93q-150 0 -150 -104zM901 359q10 0 93 -35q-18 -46 -35 -46q-35 12 -35 23q-46 -17 -46 -35v-11l104 -70
q23 -38 23 -69q-15 -104 -104 -104q-104 23 -104 57v12q0 17 46 35q12 -47 69 -47l24 35v23q-128 77 -128 105v58q49 69 93 69zM1179 359q142 0 162 -174q-18 -173 -162 -173q-162 26 -162 150v23q20 174 162 174zM1503 359q81 -12 81 -35v-58q-38 24 -69 24h-23
q-70 -35 -70 -105v-11q0 -93 93 -93q31 0 69 23v-81l-81 -11q-127 0 -150 173q0 135 150 174zM1851 359h23q15 0 139 -336h-81q-12 70 -35 70h-81q-23 0 -35 -70h-69q108 336 139 336zM2465 359q81 0 81 -46q-12 -23 -12 -35q12 0 12 -12h-12q-38 24 -69 24h-24
q-69 -41 -69 -116q22 -93 93 -93h34l35 23l12 -23h-12l12 -23v-12q-12 -34 -70 -34h-23q-129 0 -151 185q0 118 163 162zM2719 359q163 -27 163 -139v-69q0 -139 -174 -139q-116 0 -151 173q0 136 162 174zM3299 359h34q11 0 186 -220v208h46q23 -3 23 -23v-289
q0 -23 -23 -23h-23q-162 189 -162 220h-12v-209h-69v336zM3762 359q85 0 139 -81l-58 -35q0 18 -46 47h-58q-58 -30 -58 -93v-23q0 -88 92 -105q35 0 70 70h-70v58h139v-23q0 -162 -150 -162h-12q-106 0 -139 150v23q23 174 151 174zM1631 347h46q23 -3 23 -23v-92
q0 -26 -11 -47q11 -20 11 -46l-11 -23q11 -20 11 -47h-11l11 -23v-23h-69v324zM2024 347h70v-266h93v-23l-12 -23q12 0 12 -12h-163v324zM2916 347h81q163 0 163 -150v-46q0 -107 -151 -128h-93v324zM3194 347h58v-324h-58v324zM1086 185q0 -104 93 -104t93 93v46
q-35 70 -105 70q-81 -27 -81 -105zM2627 208l11 -23q0 -11 -11 -11q0 -44 69 -93h58q70 46 70 104q-24 105 -105 105q-46 0 -92 -82zM2974 290v-209h23q63 0 93 58v58q0 93 -93 93h-23zM1851 232q-23 -74 -23 -93h57q0 85 -34 93z" />
    <glyph glyph-name="colon" unicode=":" horiz-adv-x="557" 
 />
    <glyph glyph-name="semicolon" unicode=";" horiz-adv-x="557" 
 />
    <glyph glyph-name="semicolon" unicode="&#x37e;" horiz-adv-x="557" 
 />
    <glyph glyph-name="less" unicode="&#x3c;" 
 />
    <glyph glyph-name="equal" unicode="=" 
 />
    <glyph glyph-name="greater" unicode="&#x3e;" 
 />
    <glyph glyph-name="question" unicode="?" horiz-adv-x="748" 
 />
    <glyph glyph-name="at" unicode="@" horiz-adv-x="2019" 
 />
    <glyph glyph-name="A" unicode="A" horiz-adv-x="1806" 
d="M211 1713h1267q167 0 227 -172q8 -54 8 -86v-1166q0 -204 -141 -266q-61 -23 -328 -23h-790q-308 0 -360 47q-94 75 -94 242v1166q0 191 164 250zM180 1424v-235q16 0 16 -8q7 0 7 8q222 0 509 -157q296 -174 438 -602q31 -133 39 -266h211q16 0 16 16v23q0 488 -399 908
q-380 313 -821 313h-16zM188 1001l-8 -15v-212q0 -13 211 -54q124 -48 243 -172q133 -206 133 -376l15 -8h172q39 0 39 16q0 343 -273 618q-152 144 -438 195zM196 360v-55q0 -93 140 -133h16q156 31 156 157v7q-26 157 -148 157h-24q-140 -32 -140 -133z" />
    <glyph glyph-name="B" unicode="B" horiz-adv-x="4483" 
d="M2910 1715h305q966 0 966 -89q165 -90 165 -762q0 -788 -216 -788q0 -76 -1080 -76q-1144 0 -1144 102q-109 0 -152 533v305q0 576 139 674q55 89 445 89q92 12 572 12zM0 1449h178q102 -390 102 -420h25q0 60 102 420h165l-191 -687v-419q0 -25 -25 -25h-127
q-26 0 -26 25v394q0 98 -203 712zM1982 1436v-127q4 -26 26 -26h165l-13 -25v-902q4 -26 26 -26h139v953h166q25 0 25 26v127h-534zM3101 1436v-1106h152v77q60 -54 114 -89h51q127 0 127 267v343q0 241 -140 241q-57 0 -152 -89v356h-152zM3672 953v-419q25 -216 216 -216
h26q203 0 203 254v38h-152v-76q0 -89 -77 -89q-76 26 -76 101v166h280q25 0 25 25v140q0 292 -229 292q-216 -26 -216 -216zM788 1169h51q167 0 190 -267v-317q0 -244 -216 -280h-12q-229 0 -229 356v165q0 343 216 343zM2541 1156v-737q0 -101 102 -101h13q61 0 152 89h13
v-77h152v826h-152v-635q-45 -76 -114 -76q-26 41 -26 76v635h-140zM1144 1156h165v-673q4 -26 25 -26h26q76 33 76 102v597h152v-838h-152v89q-80 -77 -178 -102q-114 0 -114 254v534q0 13 12 13l-12 25v25zM737 953v-419q8 -77 38 -77h51q51 0 51 178v216q0 178 -51 178
h-13q-76 0 -76 -76zM3876 1042q89 -10 89 -89v-114h-153v76q0 89 64 127zM3291 1029h64q38 -12 38 -76v-356q0 -12 12 -12q-18 -140 -76 -140q-76 26 -76 51v495q0 18 38 38z" />
    <glyph glyph-name="C" unicode="C" horiz-adv-x="1806" 
d="M1439 1718q196 0 279 -257v-1093q0 -148 -123 -279q11 0 11 -11q-44 -19 -44 -45l-22 12q-104 -45 -424 -45h-514q-502 0 -502 100q-100 137 -100 212v1138q0 186 245 268h1194zM279 1238v-111q0 -11 11 -11l-11 -23v-602q0 -190 156 -190h837q156 20 156 134v881
q-18 123 -123 123h-892q-123 0 -134 -201zM1149 1350q67 0 67 -67v-78q0 -22 -112 -34l-11 -22v-56h101q22 -3 22 -22v-100q0 -23 -22 -23h-101v-513q0 -22 -22 -22h-134l-56 11v524q-33 0 -33 11l-22 -11q-20 11 -45 11v134h100v34q0 223 235 223h33z" />
    <glyph glyph-name="D" unicode="D" horiz-adv-x="1811" 
d="M198 1718h1322q154 0 198 -210v-1286q-40 -222 -198 -222h-1310q-210 44 -210 198v1322q56 198 198 198zM915 1236v-49q0 -25 -25 -25h-111q-25 -4 -25 -25v-136h161v-779q3 -24 24 -24h248v778q3 25 24 25h161v161h-161q-24 0 -24 25v61q0 67 49 87h111q25 0 25 25v148
q0 25 -25 25h-148q-284 0 -284 -297z" />
    <glyph glyph-name="E" unicode="E" horiz-adv-x="1811" 
d="M0 1713h1713v-1713h-1713v1713zM845 1073v-60h-8q-203 0 -418 213q-23 -39 -23 -76v-46q0 -70 84 -152h-16q-4 0 -76 23v-8q0 -117 145 -190h15v-8l-53 -8l-15 8q0 -8 -8 -8q0 8 -8 8v-8q69 -137 191 -137q-101 -91 -290 -91v-8q155 -76 259 -76h92q324 0 510 381
q30 117 30 175v53q99 90 99 107h-7q-56 -23 -92 -23q76 77 76 107q-96 -46 -137 -46q0 28 -106 61h-61q-144 0 -183 -191z" />
    <glyph glyph-name="F" unicode="F" horiz-adv-x="1806" 
d="M1435 1713q195 0 278 -256v-1090q0 -148 -122 -278q11 0 11 -11q-45 -19 -45 -45l-22 11q-76 -44 -445 -44h-489q-483 0 -490 78l-111 189v1179q0 185 245 267h1190zM423 1279q0 -147 11 -645q0 -102 200 -278q133 -56 245 -56h244q145 0 145 123v44q0 111 -145 111
q0 -11 -11 -11v11l-22 -11h-200q-189 25 -189 178q11 79 11 134h423q133 11 133 111v56q-14 100 -100 100h-400q-58 0 -67 33v156q0 85 -111 100h-45q-122 0 -122 -156z" />
    <glyph glyph-name="G" unicode="G" horiz-adv-x="1796" 
d="M197 1713h1294q159 0 222 -185v-1331q0 -151 -222 -197h-1294q-197 62 -197 197v1319q62 197 197 197zM320 690q36 -357 358 -357h320q329 0 370 382v111q0 148 -86 148q-124 0 -124 160q-98 234 -283 234h-246q-250 0 -309 -345v-333zM653 1109h210q74 0 74 -74v-12
q-20 -49 -87 -49h-160q-86 0 -86 86q0 19 49 49zM690 739h321q89 0 110 -61v-37q0 -19 -49 -49h-431q-24 0 -49 73q25 74 98 74z" />
    <glyph glyph-name="H" unicode="H" horiz-adv-x="5970" 
d="M1688 1642h91q91 -37 91 -160q-57 -205 -319 -205q-104 44 -114 91v46q0 182 251 228zM1117 1140q206 -43 206 -205q184 182 296 182h46q114 -63 114 -205q-91 -334 -91 -570l45 -23h69q159 43 159 479h-23q-74 -45 -114 -45l-45 68q248 296 387 296q137 -51 137 -228
q231 206 434 206q205 0 205 -251q234 251 456 251q205 0 205 -251q0 -91 -91 -456q23 -45 23 -69h91q52 0 68 297q280 501 730 501q297 -28 297 -228v-68q0 -298 -616 -479q13 -68 159 -68q457 35 457 182q0 448 570 661h182q365 -45 365 -364v-92q0 -490 -525 -661h-228
q-153 0 -319 205q-332 -205 -661 -205h-69q-167 0 -319 160q-213 -159 -388 -160q-124 0 -182 114v137q0 71 68 433q-22 44 -22 69h-69q-273 -234 -273 -593v-23l22 -114q-22 0 -22 -23q-342 0 -342 274l68 433q-56 46 -91 46q-228 -160 -228 -502v-205l-23 -46
q-259 0 -297 182h-22q-242 -182 -411 -182q-205 30 -205 205q68 392 137 525q-23 44 -23 68q-142 0 -251 -319q-365 -479 -593 -479q-149 0 -319 730q-46 68 -91 68q-74 -45 -114 -45l-46 91q316 273 410 273h46q114 0 205 -638q53 -69 69 -69q205 191 205 343v22
q0 33 -68 69l-114 -23v23q106 296 364 296zM5085 410q32 -159 92 -159h22q229 0 297 388v91q0 118 -68 137h-92q-251 -149 -251 -457zM4059 525v-46h23q297 155 297 319l-69 46q-155 0 -251 -319z" />
    <glyph glyph-name="I" unicode="I" horiz-adv-x="1781" 
d="M333 1718h1017q235 0 315 -219q18 -54 18 -70q-9 -458 -9 -728v-96q0 -108 9 -263q0 -268 -254 -342h-1149q-176 0 -262 219q-18 44 -18 158v1008q32 333 333 333zM26 1385v-973q0 -138 18 -184h-9q88 -202 289 -202h1035q215 0 280 211q18 46 18 184v263q0 70 -9 166
q9 17 9 27l-9 87q9 270 9 456q0 165 -193 254q-34 18 -97 18h-1034q-197 0 -280 -167q-27 -65 -27 -140zM500 1139h17q13 0 26 -26v-26q-22 -44 -70 -44l-43 9v44q22 43 70 43zM158 999q35 0 70 -193h9q52 42 52 88v26q-44 0 -44 9q23 70 79 70h18q52 0 52 -52q54 52 88 52
q35 0 35 -79q79 79 105 79q35 -5 35 -61h9q53 52 114 52q53 0 53 -61h8q63 61 106 61h8q62 0 62 -61l-27 -140l18 -9h9q17 0 17 18q0 8 -8 8q0 123 166 184l44 9q88 -14 88 -70q-9 0 -9 -9h9q0 -68 -158 -131h-9q3 -18 18 -18h8q53 0 132 27v17q35 184 184 184h26
q81 0 97 -114v-17q-35 -176 -176 -176h-8q-71 0 -114 62q-68 -62 -193 -62q-33 0 -88 44q-60 -44 -114 -44q-44 15 -44 53q0 39 27 123q-9 17 -9 26h-18q-37 0 -70 -123v-79q-96 0 -96 71q0 29 17 122l-26 18q-61 -60 -61 -167v-44q-63 8 -97 53q-47 -53 -114 -53
q-40 17 -44 36v17q0 24 27 167h-9q-8 0 -105 -149q-71 -71 -114 -71q-39 0 -88 211l-17 9l-35 -18l-9 18v8q70 79 114 79zM1420 833v-53q3 -17 18 -17q76 0 87 114v8l-9 44h-8q-70 0 -88 -96zM1139 833v-9q79 30 79 88v8h-26q-53 -35 -53 -87zM517 912q-17 -40 -17 -114
q2 -18 17 -18q53 0 53 132h-9l-26 -18q0 18 -18 18z" />
    <glyph glyph-name="J" unicode="J" horiz-adv-x="7312" 
d="M0 1684h7159v-1684h-7159v1684zM4043 1516v-147q6 -42 42 -42h63l42 21v-1180h211q42 0 42 64q22 0 252 -85h64q343 0 421 443v189q-97 379 -379 379h-42q-121 0 -232 -84h-21v526h-42zM5222 1516v-189h147v-906q0 -63 -147 -63v-190h610v148q0 35 -147 63q0 84 -21 84
q0 21 21 21q-21 561 -21 885v231h-42zM379 1474q0 -211 -274 -379l21 -42q-21 0 -21 -21h21l-21 -42v-21q7 -43 42 -43h106v-400q0 -379 337 -379h105q231 32 231 85v168q-19 0 -168 -42h-84q-105 42 -105 147v421h315v211h-315v337h-190zM2232 1074v-190h147v-484
q0 -42 -42 -42h-105v-190h568v190q-105 0 -105 42v421q73 105 232 105h21q63 0 63 -231v-126q0 -211 -63 -211h-63v-63q0 -21 21 -21l-21 -42l21 -42q-21 0 -21 -22h547v190q-105 0 -105 42v421q73 105 231 105q85 0 85 -252v-148q0 -168 -127 -168v-190h569v190h-126
l-22 105v463q0 174 -252 232h-84q-133 0 -316 -126q-138 126 -232 126h-21q-211 0 -379 -126v126h-42q-342 -84 -379 -84zM5917 1074v-190h147v-484q0 -42 -42 -42h-105v-190h610v148q0 35 -147 63v463q47 0 84 21l126 -21h85q84 34 84 148q0 168 -169 168q-120 0 -231 -126
h-21v126h-42zM948 1137v-189h105q42 -7 42 -43v-526q0 -174 253 -232h84q133 0 316 127v-127q284 21 421 21h21v190h-105q-64 13 -64 168v611h-442v-189h127l21 -106v-337q-94 -126 -274 -126q-63 70 -63 358v400h-442zM4674 926q169 0 169 -231v-84q-28 -253 -190 -253
q-126 0 -147 168v316q0 55 168 84zM6675 316q0 -136 189 -169q190 28 190 190q0 84 -127 168h-63q-189 -27 -189 -189z" />
    <glyph glyph-name="K" unicode="K" horiz-adv-x="1811" 
d="M207 1718h1304q183 0 207 -233v-1278q-40 -207 -207 -207h-1278q-157 0 -216 129q-17 60 -17 104v1252q21 233 207 233zM717 1571v-8q0 -237 -277 -372v-172h173v-544q0 -251 337 -251q138 0 319 52v199h-9q-107 -52 -207 -52h-17q-147 20 -147 147v449h346v198h-346v354
h-172z" />
    <glyph glyph-name="L" unicode="L" horiz-adv-x="7551" 
d="M0 1654h1673q0 -19 -19 -19l19 -38v-19q0 -19 -19 -19l19 -38v-1407q0 -19 -19 -19l19 -38l-19 -38q19 0 19 -19h-1673v1654zM3080 1274q376 0 437 -494q-113 -400 -380 -400h-114q-325 0 -418 438q0 387 475 456zM4544 1274q437 -92 437 -437v-38q0 -364 -456 -419h-38
q-399 89 -399 400v114q0 231 323 361zM5989 1274q437 -75 437 -418v-76q-89 -400 -399 -400h-95q-310 0 -399 419v57q0 346 456 418zM6940 1274q323 -76 323 -171q0 -27 -114 -114q-148 114 -228 114q-286 -61 -286 -285q0 -223 286 -267h19q133 0 209 152h-285v172h494v-76
q-83 -419 -399 -419h-76q-344 0 -419 438q0 395 476 456zM418 1236v-818h818v818h-818zM2072 1236h552v-171h-381v-152h286v-172h-286v-342h-171v837zM3479 1236h647v-171h-247v-666h-172v666h-228v171zM5019 1236h171v-628q6 -38 38 -38h343v-171h-514q-38 0 -38 38v799z
M2776 818q0 -219 285 -267h38q186 0 247 267q-61 285 -285 285q-285 -61 -285 -285zM4259 856v-76q57 -229 266 -229h38q203 0 247 286q0 204 -285 266q-266 -51 -266 -247zM5704 837v-38q62 -248 247 -248h57q247 62 247 248v57q0 194 -285 247q-266 -62 -266 -266z" />
    <glyph glyph-name="M" unicode="M" horiz-adv-x="1798" 
d="M0 1703h1703v-1703h-1703v1703zM440 1533v-838h823q28 0 28 29v780q0 29 -28 29h-823zM639 1334h440v-454h-440v454zM298 383q0 -113 114 -113q113 0 113 113q0 114 -113 114q-114 0 -114 -114zM681 383q0 -113 114 -113q113 0 113 127q-28 100 -113 100
q-114 0 -114 -114zM1050 383q11 -113 114 -113q77 0 113 71v85q-36 71 -113 71q-114 -25 -114 -114zM1291 383q29 -95 86 -113h28q114 0 114 113v14h-57q-14 0 -14 -14l-29 14h-14v-42h57v-14q0 -29 -29 -29h-42q-22 0 -57 57v28q0 23 57 57h42l43 -28l14 28q-14 43 -85 43
h-28q-86 -60 -86 -114zM156 483v-185q5 -28 28 -28q0 99 86 99v28h-71v29q4 28 28 28h71v29h-142zM525 483v-29h57v-156q4 -28 28 -28h14v184h57v29h-156zM922 483v-185q5 -28 29 -28h85q28 0 28 28l-28 14h-71v171h-43zM383 454h14q86 -9 86 -42v-57q0 -21 -43 -43h-57
q-20 0 -42 43v14q8 85 42 85zM766 454h15q85 0 85 -85q-22 -57 -43 -57h-57q-20 0 -42 43v57q0 20 42 42zM1178 454h14q29 -6 57 -71q-28 -65 -57 -71h-14q-85 0 -85 85q14 57 85 57z" />
    <glyph glyph-name="N" unicode="N" horiz-adv-x="1918" 
d="M40 1712h1760q11 0 40 -40v-1656q0 -16 -16 -16h-1816v24q0 24 -8 24l8 40v135q0 24 -8 24l8 40v931q0 29 -8 72q8 13 8 40q-8 109 -8 135q8 0 8 8h-8l8 16q-8 16 -8 24h8l-8 16v32q0 8 8 8l-8 16q5 127 40 127zM454 924q0 -130 127 -191q56 -16 96 -16h32v-64
q40 -42 40 -64h-8q-305 0 -343 -191v-64q48 -175 295 -175q289 0 334 223q0 32 8 32q0 126 -191 263l-8 40q0 15 128 135q16 52 16 72v95q0 86 -80 112q0 18 119 32l8 16v8h-262q-228 0 -303 -184zM1314 1187v-199h-199v-56h183q16 -3 16 -16v-183h56v199h199v56h-199v199
h-56zM701 1139q151 -45 151 -215q-12 -152 -103 -152h-16q-112 0 -152 192v39q18 136 120 136zM749 550q138 0 191 -136v-32q0 -45 -64 -103q-78 -48 -175 -48q-152 0 -191 143v16q41 160 239 160z" />
    <glyph glyph-name="O" unicode="O" horiz-adv-x="1953" 
d="M534 1713h84q82 0 496 -66q-22 -30 -178 -102q84 -119 84 -263q0 -149 -196 -290q-38 -54 -38 -84q0 -45 234 -253q66 -96 66 -196q0 -317 -459 -440q-75 -19 -159 -19h-75q-286 0 -384 225q-9 50 -9 84v9q0 282 440 375q118 18 168 18q-56 80 -56 113v65q0 26 19 56
q-9 0 -9 10q-18 -10 -28 -10t-10 10l-37 -10q-356 58 -356 356q0 241 234 375q102 37 169 37zM1526 1694q39 0 93 -18q0 -10 -9 -10l9 -47v-290q291 -25 291 -47v-93q-80 -19 -94 -19q-126 9 -187 9q0 10 -10 10v-337q-93 -10 -140 -10h-19q-18 0 -18 19v337
q-256 19 -319 28v122l56 19q63 0 263 -19v309q71 37 84 37zM365 1451v-56q0 -188 159 -337q65 -47 131 -47q141 22 141 187q-56 403 -291 403h-9q-131 0 -131 -150zM234 412v-75q0 -197 281 -197h56q318 31 318 225q10 0 10 38q0 113 -225 252q-314 0 -431 -206
q-9 -16 -9 -37z" />
    <glyph glyph-name="P" unicode="P" horiz-adv-x="1796" 
d="M197 1713h1270q246 -14 246 -210v-1306q0 -153 -210 -197h-1293q-210 37 -210 210v1306q56 197 197 197zM210 850q0 -402 443 -604q116 -24 185 -24h25q437 0 604 480l24 148q-12 0 -12 13h12q0 355 -370 567q-113 61 -271 61q-452 0 -628 -493zM850 1479q411 0 592 -456
q25 -86 25 -148v-25q0 -426 -481 -604q-26 0 -136 -12q-414 0 -591 444q-25 48 -25 135v74q0 354 395 543q77 37 221 49zM407 1171v-13h12l25 13v-13l24 13h99q18 0 37 -37q-28 -25 -74 -25q0 -40 172 -554h25l99 332q-70 222 -111 222l-50 12v25q4 25 25 25q84 0 148 -13
q64 13 148 13q25 -4 25 -25v-25l-74 -12q172 -554 197 -554q86 318 86 332q0 30 -99 259v25q0 55 74 111q-180 123 -345 123q-258 0 -443 -234zM1343 1072q0 -91 -197 -665h12q235 176 235 443q0 82 -37 222h-13zM333 1048q-25 -111 -25 -161v-61q0 -267 271 -444h13
l-235 666h-24zM850 776l-148 -443h13q66 -25 135 -25q164 25 173 25q-133 404 -173 443z" />
    <glyph glyph-name="Q" unicode="Q" horiz-adv-x="1791" 
d="M858 1708h7q490 0 759 -486q84 -164 84 -372v-7q0 -448 -425 -729q-206 -114 -418 -114h-7q-520 0 -790 509q-68 183 -68 334v7q0 511 486 774q166 84 372 84zM228 1275l258 8l15 -23v-15q0 -30 -106 -30h-8v-8l273 -820h8l159 501l-113 327h-23q-91 0 -91 38
q11 30 22 30q185 -8 213 -8q194 8 228 8l15 -23v-15q0 -30 -106 -30h-8v-8q266 -790 266 -805h15q129 443 129 486q0 125 -121 311l-23 84q18 137 136 137q-227 204 -508 204q-387 0 -638 -341q0 -8 8 -8zM1533 1199v-60q0 -153 -189 -646l-99 -296q50 0 228 205
q151 220 151 448q0 161 -83 349h-8zM144 1154q-60 -187 -60 -296q0 -436 417 -683l15 -8q-334 914 -357 987h-15zM645 114q110 -23 205 -30q177 15 258 45q-15 30 -235 645q-18 0 -175 -493q-53 -120 -53 -167z" />
    <glyph glyph-name="R" unicode="R" horiz-adv-x="1816" 
d="M830 1698h30q490 0 763 -498q75 -205 75 -347q0 -390 -332 -672q-246 -181 -528 -181q-79 0 -234 38q83 119 136 385q7 13 7 30q93 -106 211 -106q332 0 446 438q7 75 7 113v45q0 271 -302 423q-106 45 -234 45q-412 0 -573 -370q-23 -80 -23 -135v-68q0 -190 166 -272
q13 -8 30 -8q31 56 31 121q-68 78 -68 174v15q0 282 294 385q33 15 121 15h22q233 0 317 -211q15 -53 15 -91v-38q0 -330 -218 -430q-6 0 -46 -7q-143 16 -143 135q75 283 75 317v31q-10 105 -90 105h-30q-151 -24 -151 -226q10 -90 30 -121q-128 -478 -128 -657
q-260 117 -400 363q-106 198 -106 392v38q0 405 362 679q222 151 468 151z" />
    <glyph glyph-name="S" unicode="S" horiz-adv-x="1341" 
d="M650 1630q39 -182 58 -618q-19 -37 -19 -58h-78q-29 10 -366 541q0 135 405 135zM1074 1225q174 -202 174 -290q-66 -58 -424 -116l-20 39v19q0 87 232 348h38zM206 974q367 -125 367 -174v-39q0 -41 -367 -154q-77 0 -77 193q19 174 77 174zM862 704q46 0 386 -116v-20
q-69 -270 -231 -270q-17 0 -213 328v20q0 27 58 58zM631 646q77 -20 77 -116v-212l-19 -39h19q-25 -96 -58 -96q-77 0 -289 96v77q230 290 270 290z" />
    <glyph glyph-name="T" unicode="T" horiz-adv-x="3386" 
d="M2722 1675q52 -23 52 -74v-369q0 -17 7 -30q-17 -73 -37 -73h-44q-50 42 -303 391v22q0 42 318 133h7zM3091 1365h7q85 -76 177 -199v-37q0 -39 -361 -118h-22q-11 0 -22 22v14q0 38 191 310q13 8 30 8zM2316 1151h22q340 -136 340 -185q0 -60 -111 -73
q-234 -52 -280 -52q-15 0 -22 44q12 266 51 266zM1394 1055h44q67 0 67 -81v-716q-10 -66 -67 -66h-44q-51 22 -51 88v686q0 64 51 89zM2921 907h8q346 -90 346 -118v-14q0 -35 -140 -214q-24 -15 -44 -15h-8q-83 83 -199 302q-7 13 -7 30q7 29 44 29zM502 856
q73 -15 73 -67q-195 -655 -243 -708q-52 -59 -140 -59h-15q-64 0 -96 52v44q27 52 140 52l37 51q-258 502 -258 546v44q0 23 66 37h8q68 0 147 -228q84 -158 96 -207h8q105 435 147 435q4 0 30 8zM1763 856q64 0 74 -89h7q44 89 162 89q165 0 229 -192q15 -33 15 -96v-59
q0 -231 -214 -288h-37q-77 0 -147 74v-177q0 -118 -89 -118q-47 0 -74 52v759q26 45 74 45zM2744 856q16 0 37 -52l-7 -15v-7q0 -7 7 -7l-7 -15v-258q0 -39 -22 -45h-30q-258 59 -258 104q0 42 192 236q41 59 88 59zM937 841q190 0 258 -221q7 -65 7 -74q0 -67 -73 -67h-332
q0 -119 118 -147h44q43 0 118 74q13 7 30 7q59 0 59 -59v-29q-43 -133 -244 -133q-197 0 -258 206q-15 34 -15 96v15q0 221 155 302q55 30 133 30zM1903 531q16 -199 133 -199q104 0 125 147q0 23 8 52q0 179 -133 207q-108 0 -125 -170q-8 -12 -8 -37zM767 575h273
q-32 148 -118 148h-22q-108 0 -133 -148z" />
    <glyph glyph-name="U" unicode="U" horiz-adv-x="1189" 
d="M524 1708q215 0 358 -211q63 -105 63 -227q0 -253 -262 -393q-85 -34 -182 -34q-215 0 -359 210q-62 112 -62 228q0 256 267 393q81 34 177 34zM302 1281v-28q0 -117 153 -183q23 -5 46 -5h23q134 0 193 153q6 22 6 46v23q0 140 -171 199h-62q-112 0 -177 -142
q-11 -23 -11 -63zM114 848q30 0 137 -74q144 -62 261 -62q188 0 359 125q35 11 57 11q76 0 97 -114v-5q0 -93 -273 -200q-119 -22 -154 -22q341 -344 341 -353q0 -11 12 -40q-23 -114 -114 -114q-56 0 -165 131l-154 148h-6q-277 -278 -296 -279h-28q-84 0 -108 108v6
q0 55 108 142l239 245v6h-6q-150 0 -336 114q-85 63 -85 108v5q15 114 114 114z" />
    <glyph glyph-name="V" unicode="V" horiz-adv-x="1791" 
d="M197 1713h1306q210 -37 210 -210v-1306q-59 -197 -185 -197h-1318q-210 37 -210 210v1293q44 210 197 210zM764 1146v-456q13 0 37 -12q16 74 37 74q16 -50 99 -74l12 24q0 13 -123 124q0 32 111 148v24h-37l-74 -61l-13 61v148h-49zM1368 1072v-259q0 -79 86 -123h37v49
q-77 0 -86 99v123h123v50h-123v61h-37zM173 838q34 -148 147 -148h25q123 0 148 160q-34 148 -148 148h-25q-123 0 -147 -160zM555 863v-173h24q25 0 25 25v24q0 13 -12 13l12 24v87q0 98 111 98v37h-13q-147 -12 -147 -135zM1035 998v-135q0 -173 111 -173h49
q111 0 111 185v111h-49v-111q0 -12 12 -12q-31 -136 -74 -136h-24q-99 0 -99 136v135h-37zM320 949h25q99 0 99 -111q-15 -99 -99 -99h-25q-98 0 -98 111q15 99 98 99z" />
    <glyph glyph-name="W" unicode="W" horiz-adv-x="5623" 
d="M2288 1643h352v-748l-14 -30l29 -14q0 40 367 469h381v-15l-440 -528v-14q196 0 367 -338q44 -252 44 -381q-15 0 -15 -15l-29 15h-264l-30 -15q0 377 -205 470h-205v-455q-44 0 -44 -15l-30 15h-220l-29 -15l-15 30v1584zM4943 1628h352v-308h235v-352h-235v-293
q0 -272 206 -308h14v-220l15 -74h-15l15 -29v-29q-403 0 -557 410q-30 328 -30 1057v146zM2083 1349v-161q0 -73 15 -220h-74q-161 0 -161 -235v-704l-29 15h-294l-29 -15v690q0 450 381 586q59 30 191 44zM645 1335q514 0 675 -558v-132q0 -478 -572 -630h-117
q-444 0 -616 484q-15 57 -15 117v147q0 276 352 498q157 74 293 74zM3916 1320v-543q0 -423 220 -440h30q249 0 249 367q-14 239 -14 425v176h352v-733q0 -374 -323 -513q-69 -44 -235 -59q-493 0 -601 469q-15 572 -15 822l29 14h279zM337 689q39 -352 323 -352
q323 69 323 323q0 280 -294 337h-88q-200 0 -264 -308z" />
    <glyph glyph-name="X" unicode="X" horiz-adv-x="1683" 
d="M1166 1713q193 0 270 -190q15 -26 15 -58v-58q0 -180 -226 -263h-66q-192 0 -270 226v81q0 170 197 247q29 15 80 15zM656 1611q137 0 197 -160q7 -29 7 -59q0 -133 -160 -197q-22 0 -51 -7q-204 46 -204 190v43q0 128 160 183zM241 1560q135 0 167 -175
q-33 -168 -160 -168h-7q-175 21 -175 161q21 182 175 182zM233 1181h29q90 0 183 -117q85 88 211 88q163 0 248 -161h7q129 102 255 102q268 0 379 -291q15 -58 15 -139v-663h-780v350h-416v182h-364v372q0 201 146 262q50 15 87 15z" />
    <glyph glyph-name="Y" unicode="Y" horiz-adv-x="6176" 
d="M950 1503h28q227 -39 227 -227q-54 -241 -227 -241h-28q-187 0 -227 255q0 170 227 213zM510 1418h43q156 -23 156 -156v-28q0 -131 -184 -156q-95 0 -156 113v85q28 142 141 142zM1503 1404q57 0 57 -71h14q59 57 142 57h85q71 -34 71 -71q54 50 156 85q198 0 198 -241
v-156q0 -170 -71 -170q-85 0 -85 198v213q0 20 -42 42h-15q-113 0 -113 -127v-227q0 -80 -71 -99q-65 27 -71 56v270q0 108 -57 127h-14q-113 0 -113 -241v-156q-6 -29 -71 -56q-71 19 -71 99v411q29 57 71 57zM2382 1404q66 0 170 -397q24 0 142 368l57 29q56 -22 56 -43
v-14q-198 -709 -354 -709h-71q-74 0 -85 43v42q0 28 156 43q0 32 42 85q-184 429 -184 496q14 57 71 57zM3091 1404q227 -24 227 -156l-43 -29h-42q-86 85 -142 85h-43q-20 0 -42 -42v-14q4 -36 298 -128q42 -71 42 -99q0 -184 -269 -184q-177 0 -213 170l57 42h14
q94 -113 156 -113h28q85 0 85 85q-56 42 -269 99q-57 60 -57 114v14q0 130 213 156zM3516 1404q71 -23 71 -85q68 71 156 71h57q184 -44 184 -227v-85q-33 -241 -241 -241q-87 16 -156 85v-185q0 -76 -56 -99h-29q-57 23 -57 99v567q0 80 71 100zM4353 1404q227 0 227 -256
q0 -154 14 -283l-57 -28q-14 0 -99 70q-119 -70 -199 -70q-170 31 -170 156v14q0 142 326 184q43 0 43 28q0 85 -99 85q-76 0 -185 -113q-56 21 -56 43v56q65 114 255 114zM4963 1404q156 0 241 -156q-28 -65 -57 -71h-28q-90 113 -156 113q-124 0 -142 -184
q0 -137 127 -156h15q70 0 156 113l28 15q57 -15 57 -85q0 -118 -256 -156q-240 0 -269 297q0 232 284 270zM5572 1404q256 -47 256 -227q-29 -85 -57 -85h-43q-92 0 -283 -14v-15q18 -127 127 -127q71 0 185 99h14q42 0 42 -57q-64 -141 -255 -141q-255 42 -255 241v85
q0 210 269 241zM184 1375h57q99 -54 99 -156q-47 -127 -156 -127q-96 24 -127 99v99q49 85 127 85zM5445 1177v-14h241v14q-19 127 -128 127q-91 0 -113 -127zM3587 1092q38 -142 142 -142q94 0 128 170q-23 170 -128 170h-43q-75 0 -99 -198zM4211 1021v-28q0 -23 57 -57
h28q142 0 142 156v14q-227 -28 -227 -85zM199 1078q97 0 155 -100q107 71 185 71q198 -33 198 -127h14q98 71 185 71h57q236 0 297 -312v-582h-652v298h-340v142h-298v354q0 147 199 185zM2410 525v-284q0 -71 57 -71v-57l-71 -14q-22 0 -56 57v354zM3474 525h14l71 -15v-56
q-85 0 -85 -57h71v-57q-71 0 -71 -28q0 -14 14 -14l-14 -29v-156h-71v227h-57v29q57 37 57 71q0 44 71 85zM4296 525l57 -15v-56q-85 0 -85 -29v-28h71v-57h-71v-227h-71v227h-57v57h57v71q23 57 99 57zM4636 525q57 -22 57 -43v-14q0 -20 -42 -43h-15q-20 0 -42 43z
M5544 525v-185q0 -14 14 -14l-14 -28q0 -14 14 -14l-14 -29v-28l14 -99l-28 -15h-29q-14 0 -14 15q-58 -29 -85 -29q-85 29 -85 114v71q0 77 71 113h85v113zM1701 397h71q85 -9 85 -43v-127l15 -99l-57 -29l-14 29l-71 -29q-85 0 -85 100q0 85 99 85h43v56h-71l-29 -14
l-14 28v15q5 28 28 28zM2098 397q15 0 15 -14l71 14h42q57 -23 57 -99v-85q0 -114 -114 -114q-27 14 -42 14v-113h-71v312l-14 71q7 0 56 14zM2538 397h71q85 -9 85 -43v-127l14 -99l-57 -29l-14 29q-71 -15 -71 -29q-85 0 -85 100q0 85 100 85h42v56h-71l-28 -14l-14 28v15
q4 28 28 28zM2836 397h56q71 -4 71 -28q-14 -28 -14 -43l-99 14l-14 -71v-70q4 -29 28 -29h43l28 14l28 -56q-56 -29 -99 -29q-113 0 -113 170q0 75 85 128zM3063 397h85q71 -32 71 -142v-14l-71 -14h-85v-28q4 -29 28 -29h28l71 14l14 -28v-14q0 -33 -99 -43
q-108 0 -127 142v14q0 84 85 142zM3644 397h85q85 -45 85 -156q-14 -142 -142 -142q-113 24 -113 170q0 75 85 128zM3885 397h14l43 -28q4 28 28 28h57v-43l-85 -56v-185h-71v100l-14 170zM4395 397h43v-28l43 28h56v-43l-85 -56v-185h-71v128l-14 142zM4580 397h56l29 -14
q0 14 14 14v-284h-71v227h-57v29q5 28 29 28zM4863 397h43q71 -36 71 -113v-29q0 -28 -29 -28h-127v-28q4 -29 28 -29h71l28 14l29 -56q-91 -29 -114 -29q-108 0 -127 156q24 142 127 142zM5048 397h56v-28l43 28h71q20 0 42 -43v-241h-71v199q0 28 -28 28h-14
q-28 -4 -28 -28v-128l-15 -28h15q-15 -28 -15 -43h-71v241l-14 29zM5714 397h57q28 -4 28 -28v-15l-14 -28l-28 14h-43q-28 -4 -28 -28v-14q113 0 127 -114q-29 -85 -113 -85q-85 14 -85 43v42h14q71 0 71 -28q27 14 42 14v14q-127 78 -127 128v14q20 71 99 71zM2127 312
v-142l57 -14l28 43v70l-14 71h-43q-28 -4 -28 -28zM3063 312v-28h71v56h-43q-28 -4 -28 -28zM3658 340l-14 -71v-70q4 -29 28 -29h29q28 0 28 29v70l-14 71h-57zM4821 312v-28h85v14q-14 27 -14 42h-43q-28 -4 -28 -28zM5388 298v-57q0 -39 28 -85q25 14 57 14v170h-43
q-20 0 -42 -42zM1716 199v-15q4 -28 28 -28h14q29 0 29 28v57h-15q-56 -21 -56 -42zM2552 199v-15q5 -28 29 -28h14q28 0 28 28v57h-14q-57 -21 -57 -42z" />
    <glyph glyph-name="Z" unicode="Z" horiz-adv-x="5564" 
d="M672 1652q168 -13 188 -13v-14q0 -41 -14 -255h-13l-81 14h-40q-121 0 -121 -162v-80h269v-269h-269v-846h-376v846h-215v269h228v94q0 416 444 416zM1048 1625h376v-1598h-376v1598zM3426 1625h376v-953h13l296 470h403v-14l-363 -497l403 -604h-457l-282 551h-13v-551
h-376v1598zM1746 1599h377v-256q0 -26 -27 -26h-350v282zM2955 1169q166 0 309 -67l-26 -283q-104 68 -229 68q-195 0 -268 -202q-14 -52 -14 -107q0 -263 309 -296h27q77 0 201 54v-215l14 -27h-14l14 -27q0 -40 -309 -67q-465 0 -605 416q-13 14 -27 175q0 505 618 578z
M5347 1169l80 -14h54q-13 -158 -13 -228v-94l-68 13h-80q-220 0 -255 -309v-510h-350q-27 0 -27 27q0 13 14 13l-14 94v779q0 49 14 121q-14 23 -14 67l27 14h296q27 -4 27 -27v-134l-14 -27l27 -14q100 229 296 229zM1746 1142h350q27 -4 27 -27v-1088h-377v1115z" />
    <glyph glyph-name="bracketleft" unicode="[" horiz-adv-x="758" 
 />
    <glyph glyph-name="backslash" unicode="\" horiz-adv-x="569" 
 />
    <glyph glyph-name="bracketright" unicode="]" horiz-adv-x="758" 
 />
    <glyph glyph-name="asciicircum" unicode="^" 
 />
    <glyph glyph-name="underscore" unicode="_" horiz-adv-x="1024" 
 />
    <glyph glyph-name="grave" unicode="`" horiz-adv-x="1024" 
 />
    <glyph glyph-name="a" unicode="a" horiz-adv-x="1806" 
d="M211 1713h1267q167 0 227 -172q8 -54 8 -86v-1166q0 -204 -141 -266q-61 -23 -328 -23h-790q-308 0 -360 47q-94 75 -94 242v1166q0 191 164 250zM180 1424v-235q16 0 16 -8q7 0 7 8q222 0 509 -157q296 -174 438 -602q31 -133 39 -266h211q16 0 16 16v23q0 488 -399 908
q-380 313 -821 313h-16zM188 1001l-8 -15v-212q0 -13 211 -54q124 -48 243 -172q133 -206 133 -376l15 -8h172q39 0 39 16q0 343 -273 618q-152 144 -438 195zM196 360v-55q0 -93 140 -133h16q156 31 156 157v7q-26 157 -148 157h-24q-140 -32 -140 -133z" />
    <glyph glyph-name="b" unicode="b" horiz-adv-x="4483" 
d="M2910 1715h305q966 0 966 -89q165 -90 165 -762q0 -788 -216 -788q0 -76 -1080 -76q-1144 0 -1144 102q-109 0 -152 533v305q0 576 139 674q55 89 445 89q92 12 572 12zM0 1449h178q102 -390 102 -420h25q0 60 102 420h165l-191 -687v-419q0 -25 -25 -25h-127
q-26 0 -26 25v394q0 98 -203 712zM1982 1436v-127q4 -26 26 -26h165l-13 -25v-902q4 -26 26 -26h139v953h166q25 0 25 26v127h-534zM3101 1436v-1106h152v77q60 -54 114 -89h51q127 0 127 267v343q0 241 -140 241q-57 0 -152 -89v356h-152zM3672 953v-419q25 -216 216 -216
h26q203 0 203 254v38h-152v-76q0 -89 -77 -89q-76 26 -76 101v166h280q25 0 25 25v140q0 292 -229 292q-216 -26 -216 -216zM788 1169h51q167 0 190 -267v-317q0 -244 -216 -280h-12q-229 0 -229 356v165q0 343 216 343zM2541 1156v-737q0 -101 102 -101h13q61 0 152 89h13
v-77h152v826h-152v-635q-45 -76 -114 -76q-26 41 -26 76v635h-140zM1144 1156h165v-673q4 -26 25 -26h26q76 33 76 102v597h152v-838h-152v89q-80 -77 -178 -102q-114 0 -114 254v534q0 13 12 13l-12 25v25zM737 953v-419q8 -77 38 -77h51q51 0 51 178v216q0 178 -51 178
h-13q-76 0 -76 -76zM3876 1042q89 -10 89 -89v-114h-153v76q0 89 64 127zM3291 1029h64q38 -12 38 -76v-356q0 -12 12 -12q-18 -140 -76 -140q-76 26 -76 51v495q0 18 38 38z" />
    <glyph glyph-name="c" unicode="c" horiz-adv-x="1806" 
d="M1439 1718q196 0 279 -257v-1093q0 -148 -123 -279q11 0 11 -11q-44 -19 -44 -45l-22 12q-104 -45 -424 -45h-514q-502 0 -502 100q-100 137 -100 212v1138q0 186 245 268h1194zM279 1238v-111q0 -11 11 -11l-11 -23v-602q0 -190 156 -190h837q156 20 156 134v881
q-18 123 -123 123h-892q-123 0 -134 -201zM1149 1350q67 0 67 -67v-78q0 -22 -112 -34l-11 -22v-56h101q22 -3 22 -22v-100q0 -23 -22 -23h-101v-513q0 -22 -22 -22h-134l-56 11v524q-33 0 -33 11l-22 -11q-20 11 -45 11v134h100v34q0 223 235 223h33z" />
    <glyph glyph-name="d" unicode="d" horiz-adv-x="1811" 
d="M198 1718h1322q154 0 198 -210v-1286q-40 -222 -198 -222h-1310q-210 44 -210 198v1322q56 198 198 198zM915 1236v-49q0 -25 -25 -25h-111q-25 -4 -25 -25v-136h161v-779q3 -24 24 -24h248v778q3 25 24 25h161v161h-161q-24 0 -24 25v61q0 67 49 87h111q25 0 25 25v148
q0 25 -25 25h-148q-284 0 -284 -297z" />
    <glyph glyph-name="e" unicode="e" horiz-adv-x="1811" 
d="M0 1713h1713v-1713h-1713v1713zM845 1073v-60h-8q-203 0 -418 213q-23 -39 -23 -76v-46q0 -70 84 -152h-16q-4 0 -76 23v-8q0 -117 145 -190h15v-8l-53 -8l-15 8q0 -8 -8 -8q0 8 -8 8v-8q69 -137 191 -137q-101 -91 -290 -91v-8q155 -76 259 -76h92q324 0 510 381
q30 117 30 175v53q99 90 99 107h-7q-56 -23 -92 -23q76 77 76 107q-96 -46 -137 -46q0 28 -106 61h-61q-144 0 -183 -191z" />
    <glyph glyph-name="f" unicode="f" horiz-adv-x="1806" 
d="M1435 1713q195 0 278 -256v-1090q0 -148 -122 -278q11 0 11 -11q-45 -19 -45 -45l-22 11q-76 -44 -445 -44h-489q-483 0 -490 78l-111 189v1179q0 185 245 267h1190zM423 1279q0 -147 11 -645q0 -102 200 -278q133 -56 245 -56h244q145 0 145 123v44q0 111 -145 111
q0 -11 -11 -11v11l-22 -11h-200q-189 25 -189 178q11 79 11 134h423q133 11 133 111v56q-14 100 -100 100h-400q-58 0 -67 33v156q0 85 -111 100h-45q-122 0 -122 -156z" />
    <glyph glyph-name="g" unicode="g" horiz-adv-x="1796" 
d="M197 1713h1294q159 0 222 -185v-1331q0 -151 -222 -197h-1294q-197 62 -197 197v1319q62 197 197 197zM320 690q36 -357 358 -357h320q329 0 370 382v111q0 148 -86 148q-124 0 -124 160q-98 234 -283 234h-246q-250 0 -309 -345v-333zM653 1109h210q74 0 74 -74v-12
q-20 -49 -87 -49h-160q-86 0 -86 86q0 19 49 49zM690 739h321q89 0 110 -61v-37q0 -19 -49 -49h-431q-24 0 -49 73q25 74 98 74z" />
    <glyph glyph-name="h" unicode="h" horiz-adv-x="5970" 
d="M1688 1642h91q91 -37 91 -160q-57 -205 -319 -205q-104 44 -114 91v46q0 182 251 228zM1117 1140q206 -43 206 -205q184 182 296 182h46q114 -63 114 -205q-91 -334 -91 -570l45 -23h69q159 43 159 479h-23q-74 -45 -114 -45l-45 68q248 296 387 296q137 -51 137 -228
q231 206 434 206q205 0 205 -251q234 251 456 251q205 0 205 -251q0 -91 -91 -456q23 -45 23 -69h91q52 0 68 297q280 501 730 501q297 -28 297 -228v-68q0 -298 -616 -479q13 -68 159 -68q457 35 457 182q0 448 570 661h182q365 -45 365 -364v-92q0 -490 -525 -661h-228
q-153 0 -319 205q-332 -205 -661 -205h-69q-167 0 -319 160q-213 -159 -388 -160q-124 0 -182 114v137q0 71 68 433q-22 44 -22 69h-69q-273 -234 -273 -593v-23l22 -114q-22 0 -22 -23q-342 0 -342 274l68 433q-56 46 -91 46q-228 -160 -228 -502v-205l-23 -46
q-259 0 -297 182h-22q-242 -182 -411 -182q-205 30 -205 205q68 392 137 525q-23 44 -23 68q-142 0 -251 -319q-365 -479 -593 -479q-149 0 -319 730q-46 68 -91 68q-74 -45 -114 -45l-46 91q316 273 410 273h46q114 0 205 -638q53 -69 69 -69q205 191 205 343v22
q0 33 -68 69l-114 -23v23q106 296 364 296zM5085 410q32 -159 92 -159h22q229 0 297 388v91q0 118 -68 137h-92q-251 -149 -251 -457zM4059 525v-46h23q297 155 297 319l-69 46q-155 0 -251 -319z" />
    <glyph glyph-name="i" unicode="i" horiz-adv-x="1781" 
d="M333 1718h1017q235 0 315 -219q18 -54 18 -70q-9 -458 -9 -728v-96q0 -108 9 -263q0 -268 -254 -342h-1149q-176 0 -262 219q-18 44 -18 158v1008q32 333 333 333zM26 1385v-973q0 -138 18 -184h-9q88 -202 289 -202h1035q215 0 280 211q18 46 18 184v263q0 70 -9 166
q9 17 9 27l-9 87q9 270 9 456q0 165 -193 254q-34 18 -97 18h-1034q-197 0 -280 -167q-27 -65 -27 -140zM500 1139h17q13 0 26 -26v-26q-22 -44 -70 -44l-43 9v44q22 43 70 43zM158 999q35 0 70 -193h9q52 42 52 88v26q-44 0 -44 9q23 70 79 70h18q52 0 52 -52q54 52 88 52
q35 0 35 -79q79 79 105 79q35 -5 35 -61h9q53 52 114 52q53 0 53 -61h8q63 61 106 61h8q62 0 62 -61l-27 -140l18 -9h9q17 0 17 18q0 8 -8 8q0 123 166 184l44 9q88 -14 88 -70q-9 0 -9 -9h9q0 -68 -158 -131h-9q3 -18 18 -18h8q53 0 132 27v17q35 184 184 184h26
q81 0 97 -114v-17q-35 -176 -176 -176h-8q-71 0 -114 62q-68 -62 -193 -62q-33 0 -88 44q-60 -44 -114 -44q-44 15 -44 53q0 39 27 123q-9 17 -9 26h-18q-37 0 -70 -123v-79q-96 0 -96 71q0 29 17 122l-26 18q-61 -60 -61 -167v-44q-63 8 -97 53q-47 -53 -114 -53
q-40 17 -44 36v17q0 24 27 167h-9q-8 0 -105 -149q-71 -71 -114 -71q-39 0 -88 211l-17 9l-35 -18l-9 18v8q70 79 114 79zM1420 833v-53q3 -17 18 -17q76 0 87 114v8l-9 44h-8q-70 0 -88 -96zM1139 833v-9q79 30 79 88v8h-26q-53 -35 -53 -87zM517 912q-17 -40 -17 -114
q2 -18 17 -18q53 0 53 132h-9l-26 -18q0 18 -18 18z" />
    <glyph glyph-name="j" unicode="j" horiz-adv-x="7312" 
d="M0 1684h7159v-1684h-7159v1684zM4043 1516v-147q6 -42 42 -42h63l42 21v-1180h211q42 0 42 64q22 0 252 -85h64q343 0 421 443v189q-97 379 -379 379h-42q-121 0 -232 -84h-21v526h-42zM5222 1516v-189h147v-906q0 -63 -147 -63v-190h610v148q0 35 -147 63q0 84 -21 84
q0 21 21 21q-21 561 -21 885v231h-42zM379 1474q0 -211 -274 -379l21 -42q-21 0 -21 -21h21l-21 -42v-21q7 -43 42 -43h106v-400q0 -379 337 -379h105q231 32 231 85v168q-19 0 -168 -42h-84q-105 42 -105 147v421h315v211h-315v337h-190zM2232 1074v-190h147v-484
q0 -42 -42 -42h-105v-190h568v190q-105 0 -105 42v421q73 105 232 105h21q63 0 63 -231v-126q0 -211 -63 -211h-63v-63q0 -21 21 -21l-21 -42l21 -42q-21 0 -21 -22h547v190q-105 0 -105 42v421q73 105 231 105q85 0 85 -252v-148q0 -168 -127 -168v-190h569v190h-126
l-22 105v463q0 174 -252 232h-84q-133 0 -316 -126q-138 126 -232 126h-21q-211 0 -379 -126v126h-42q-342 -84 -379 -84zM5917 1074v-190h147v-484q0 -42 -42 -42h-105v-190h610v148q0 35 -147 63v463q47 0 84 21l126 -21h85q84 34 84 148q0 168 -169 168q-120 0 -231 -126
h-21v126h-42zM948 1137v-189h105q42 -7 42 -43v-526q0 -174 253 -232h84q133 0 316 127v-127q284 21 421 21h21v190h-105q-64 13 -64 168v611h-442v-189h127l21 -106v-337q-94 -126 -274 -126q-63 70 -63 358v400h-442zM4674 926q169 0 169 -231v-84q-28 -253 -190 -253
q-126 0 -147 168v316q0 55 168 84zM6675 316q0 -136 189 -169q190 28 190 190q0 84 -127 168h-63q-189 -27 -189 -189z" />
    <glyph glyph-name="k" unicode="k" horiz-adv-x="1811" 
d="M207 1718h1304q183 0 207 -233v-1278q-40 -207 -207 -207h-1278q-157 0 -216 129q-17 60 -17 104v1252q21 233 207 233zM717 1571v-8q0 -237 -277 -372v-172h173v-544q0 -251 337 -251q138 0 319 52v199h-9q-107 -52 -207 -52h-17q-147 20 -147 147v449h346v198h-346v354
h-172z" />
    <glyph glyph-name="l" unicode="l" horiz-adv-x="7551" 
d="M0 1654h1673q0 -19 -19 -19l19 -38v-19q0 -19 -19 -19l19 -38v-1407q0 -19 -19 -19l19 -38l-19 -38q19 0 19 -19h-1673v1654zM3080 1274q376 0 437 -494q-113 -400 -380 -400h-114q-325 0 -418 438q0 387 475 456zM4544 1274q437 -92 437 -437v-38q0 -364 -456 -419h-38
q-399 89 -399 400v114q0 231 323 361zM5989 1274q437 -75 437 -418v-76q-89 -400 -399 -400h-95q-310 0 -399 419v57q0 346 456 418zM6940 1274q323 -76 323 -171q0 -27 -114 -114q-148 114 -228 114q-286 -61 -286 -285q0 -223 286 -267h19q133 0 209 152h-285v172h494v-76
q-83 -419 -399 -419h-76q-344 0 -419 438q0 395 476 456zM418 1236v-818h818v818h-818zM2072 1236h552v-171h-381v-152h286v-172h-286v-342h-171v837zM3479 1236h647v-171h-247v-666h-172v666h-228v171zM5019 1236h171v-628q6 -38 38 -38h343v-171h-514q-38 0 -38 38v799z
M2776 818q0 -219 285 -267h38q186 0 247 267q-61 285 -285 285q-285 -61 -285 -285zM4259 856v-76q57 -229 266 -229h38q203 0 247 286q0 204 -285 266q-266 -51 -266 -247zM5704 837v-38q62 -248 247 -248h57q247 62 247 248v57q0 194 -285 247q-266 -62 -266 -266z" />
    <glyph glyph-name="m" unicode="m" horiz-adv-x="1798" 
d="M0 1703h1703v-1703h-1703v1703zM440 1533v-838h823q28 0 28 29v780q0 29 -28 29h-823zM639 1334h440v-454h-440v454zM298 383q0 -113 114 -113q113 0 113 113q0 114 -113 114q-114 0 -114 -114zM681 383q0 -113 114 -113q113 0 113 127q-28 100 -113 100
q-114 0 -114 -114zM1050 383q11 -113 114 -113q77 0 113 71v85q-36 71 -113 71q-114 -25 -114 -114zM1291 383q29 -95 86 -113h28q114 0 114 113v14h-57q-14 0 -14 -14l-29 14h-14v-42h57v-14q0 -29 -29 -29h-42q-22 0 -57 57v28q0 23 57 57h42l43 -28l14 28q-14 43 -85 43
h-28q-86 -60 -86 -114zM156 483v-185q5 -28 28 -28q0 99 86 99v28h-71v29q4 28 28 28h71v29h-142zM525 483v-29h57v-156q4 -28 28 -28h14v184h57v29h-156zM922 483v-185q5 -28 29 -28h85q28 0 28 28l-28 14h-71v171h-43zM383 454h14q86 -9 86 -42v-57q0 -21 -43 -43h-57
q-20 0 -42 43v14q8 85 42 85zM766 454h15q85 0 85 -85q-22 -57 -43 -57h-57q-20 0 -42 43v57q0 20 42 42zM1178 454h14q29 -6 57 -71q-28 -65 -57 -71h-14q-85 0 -85 85q14 57 85 57z" />
    <glyph glyph-name="n" unicode="n" horiz-adv-x="1918" 
d="M40 1712h1760q11 0 40 -40v-1656q0 -16 -16 -16h-1816v24q0 24 -8 24l8 40v135q0 24 -8 24l8 40v931q0 29 -8 72q8 13 8 40q-8 109 -8 135q8 0 8 8h-8l8 16q-8 16 -8 24h8l-8 16v32q0 8 8 8l-8 16q5 127 40 127zM454 924q0 -130 127 -191q56 -16 96 -16h32v-64
q40 -42 40 -64h-8q-305 0 -343 -191v-64q48 -175 295 -175q289 0 334 223q0 32 8 32q0 126 -191 263l-8 40q0 15 128 135q16 52 16 72v95q0 86 -80 112q0 18 119 32l8 16v8h-262q-228 0 -303 -184zM1314 1187v-199h-199v-56h183q16 -3 16 -16v-183h56v199h199v56h-199v199
h-56zM701 1139q151 -45 151 -215q-12 -152 -103 -152h-16q-112 0 -152 192v39q18 136 120 136zM749 550q138 0 191 -136v-32q0 -45 -64 -103q-78 -48 -175 -48q-152 0 -191 143v16q41 160 239 160z" />
    <glyph glyph-name="o" unicode="o" horiz-adv-x="1953" 
d="M534 1713h84q82 0 496 -66q-22 -30 -178 -102q84 -119 84 -263q0 -149 -196 -290q-38 -54 -38 -84q0 -45 234 -253q66 -96 66 -196q0 -317 -459 -440q-75 -19 -159 -19h-75q-286 0 -384 225q-9 50 -9 84v9q0 282 440 375q118 18 168 18q-56 80 -56 113v65q0 26 19 56
q-9 0 -9 10q-18 -10 -28 -10t-10 10l-37 -10q-356 58 -356 356q0 241 234 375q102 37 169 37zM1526 1694q39 0 93 -18q0 -10 -9 -10l9 -47v-290q291 -25 291 -47v-93q-80 -19 -94 -19q-126 9 -187 9q0 10 -10 10v-337q-93 -10 -140 -10h-19q-18 0 -18 19v337
q-256 19 -319 28v122l56 19q63 0 263 -19v309q71 37 84 37zM365 1451v-56q0 -188 159 -337q65 -47 131 -47q141 22 141 187q-56 403 -291 403h-9q-131 0 -131 -150zM234 412v-75q0 -197 281 -197h56q318 31 318 225q10 0 10 38q0 113 -225 252q-314 0 -431 -206
q-9 -16 -9 -37z" />
    <glyph glyph-name="p" unicode="p" horiz-adv-x="1796" 
d="M197 1713h1270q246 -14 246 -210v-1306q0 -153 -210 -197h-1293q-210 37 -210 210v1306q56 197 197 197zM210 850q0 -402 443 -604q116 -24 185 -24h25q437 0 604 480l24 148q-12 0 -12 13h12q0 355 -370 567q-113 61 -271 61q-452 0 -628 -493zM850 1479q411 0 592 -456
q25 -86 25 -148v-25q0 -426 -481 -604q-26 0 -136 -12q-414 0 -591 444q-25 48 -25 135v74q0 354 395 543q77 37 221 49zM407 1171v-13h12l25 13v-13l24 13h99q18 0 37 -37q-28 -25 -74 -25q0 -40 172 -554h25l99 332q-70 222 -111 222l-50 12v25q4 25 25 25q84 0 148 -13
q64 13 148 13q25 -4 25 -25v-25l-74 -12q172 -554 197 -554q86 318 86 332q0 30 -99 259v25q0 55 74 111q-180 123 -345 123q-258 0 -443 -234zM1343 1072q0 -91 -197 -665h12q235 176 235 443q0 82 -37 222h-13zM333 1048q-25 -111 -25 -161v-61q0 -267 271 -444h13
l-235 666h-24zM850 776l-148 -443h13q66 -25 135 -25q164 25 173 25q-133 404 -173 443z" />
    <glyph glyph-name="q" unicode="q" horiz-adv-x="1791" 
d="M858 1708h7q490 0 759 -486q84 -164 84 -372v-7q0 -448 -425 -729q-206 -114 -418 -114h-7q-520 0 -790 509q-68 183 -68 334v7q0 511 486 774q166 84 372 84zM228 1275l258 8l15 -23v-15q0 -30 -106 -30h-8v-8l273 -820h8l159 501l-113 327h-23q-91 0 -91 38
q11 30 22 30q185 -8 213 -8q194 8 228 8l15 -23v-15q0 -30 -106 -30h-8v-8q266 -790 266 -805h15q129 443 129 486q0 125 -121 311l-23 84q18 137 136 137q-227 204 -508 204q-387 0 -638 -341q0 -8 8 -8zM1533 1199v-60q0 -153 -189 -646l-99 -296q50 0 228 205
q151 220 151 448q0 161 -83 349h-8zM144 1154q-60 -187 -60 -296q0 -436 417 -683l15 -8q-334 914 -357 987h-15zM645 114q110 -23 205 -30q177 15 258 45q-15 30 -235 645q-18 0 -175 -493q-53 -120 -53 -167z" />
    <glyph glyph-name="r" unicode="r" horiz-adv-x="1816" 
d="M830 1698h30q490 0 763 -498q75 -205 75 -347q0 -390 -332 -672q-246 -181 -528 -181q-79 0 -234 38q83 119 136 385q7 13 7 30q93 -106 211 -106q332 0 446 438q7 75 7 113v45q0 271 -302 423q-106 45 -234 45q-412 0 -573 -370q-23 -80 -23 -135v-68q0 -190 166 -272
q13 -8 30 -8q31 56 31 121q-68 78 -68 174v15q0 282 294 385q33 15 121 15h22q233 0 317 -211q15 -53 15 -91v-38q0 -330 -218 -430q-6 0 -46 -7q-143 16 -143 135q75 283 75 317v31q-10 105 -90 105h-30q-151 -24 -151 -226q10 -90 30 -121q-128 -478 -128 -657
q-260 117 -400 363q-106 198 -106 392v38q0 405 362 679q222 151 468 151z" />
    <glyph glyph-name="s" unicode="s" horiz-adv-x="1341" 
d="M650 1630q39 -182 58 -618q-19 -37 -19 -58h-78q-29 10 -366 541q0 135 405 135zM1074 1225q174 -202 174 -290q-66 -58 -424 -116l-20 39v19q0 87 232 348h38zM206 974q367 -125 367 -174v-39q0 -41 -367 -154q-77 0 -77 193q19 174 77 174zM862 704q46 0 386 -116v-20
q-69 -270 -231 -270q-17 0 -213 328v20q0 27 58 58zM631 646q77 -20 77 -116v-212l-19 -39h19q-25 -96 -58 -96q-77 0 -289 96v77q230 290 270 290z" />
    <glyph glyph-name="t" unicode="t" horiz-adv-x="3386" 
d="M2722 1675q52 -23 52 -74v-369q0 -17 7 -30q-17 -73 -37 -73h-44q-50 42 -303 391v22q0 42 318 133h7zM3091 1365h7q85 -76 177 -199v-37q0 -39 -361 -118h-22q-11 0 -22 22v14q0 38 191 310q13 8 30 8zM2316 1151h22q340 -136 340 -185q0 -60 -111 -73
q-234 -52 -280 -52q-15 0 -22 44q12 266 51 266zM1394 1055h44q67 0 67 -81v-716q-10 -66 -67 -66h-44q-51 22 -51 88v686q0 64 51 89zM2921 907h8q346 -90 346 -118v-14q0 -35 -140 -214q-24 -15 -44 -15h-8q-83 83 -199 302q-7 13 -7 30q7 29 44 29zM502 856
q73 -15 73 -67q-195 -655 -243 -708q-52 -59 -140 -59h-15q-64 0 -96 52v44q27 52 140 52l37 51q-258 502 -258 546v44q0 23 66 37h8q68 0 147 -228q84 -158 96 -207h8q105 435 147 435q4 0 30 8zM1763 856q64 0 74 -89h7q44 89 162 89q165 0 229 -192q15 -33 15 -96v-59
q0 -231 -214 -288h-37q-77 0 -147 74v-177q0 -118 -89 -118q-47 0 -74 52v759q26 45 74 45zM2744 856q16 0 37 -52l-7 -15v-7q0 -7 7 -7l-7 -15v-258q0 -39 -22 -45h-30q-258 59 -258 104q0 42 192 236q41 59 88 59zM937 841q190 0 258 -221q7 -65 7 -74q0 -67 -73 -67h-332
q0 -119 118 -147h44q43 0 118 74q13 7 30 7q59 0 59 -59v-29q-43 -133 -244 -133q-197 0 -258 206q-15 34 -15 96v15q0 221 155 302q55 30 133 30zM1903 531q16 -199 133 -199q104 0 125 147q0 23 8 52q0 179 -133 207q-108 0 -125 -170q-8 -12 -8 -37zM767 575h273
q-32 148 -118 148h-22q-108 0 -133 -148z" />
    <glyph glyph-name="u" unicode="u" horiz-adv-x="1189" 
d="M524 1708q215 0 358 -211q63 -105 63 -227q0 -253 -262 -393q-85 -34 -182 -34q-215 0 -359 210q-62 112 -62 228q0 256 267 393q81 34 177 34zM302 1281v-28q0 -117 153 -183q23 -5 46 -5h23q134 0 193 153q6 22 6 46v23q0 140 -171 199h-62q-112 0 -177 -142
q-11 -23 -11 -63zM114 848q30 0 137 -74q144 -62 261 -62q188 0 359 125q35 11 57 11q76 0 97 -114v-5q0 -93 -273 -200q-119 -22 -154 -22q341 -344 341 -353q0 -11 12 -40q-23 -114 -114 -114q-56 0 -165 131l-154 148h-6q-277 -278 -296 -279h-28q-84 0 -108 108v6
q0 55 108 142l239 245v6h-6q-150 0 -336 114q-85 63 -85 108v5q15 114 114 114z" />
    <glyph glyph-name="v" unicode="v" horiz-adv-x="1791" 
d="M197 1713h1306q210 -37 210 -210v-1306q-59 -197 -185 -197h-1318q-210 37 -210 210v1293q44 210 197 210zM764 1146v-456q13 0 37 -12q16 74 37 74q16 -50 99 -74l12 24q0 13 -123 124q0 32 111 148v24h-37l-74 -61l-13 61v148h-49zM1368 1072v-259q0 -79 86 -123h37v49
q-77 0 -86 99v123h123v50h-123v61h-37zM173 838q34 -148 147 -148h25q123 0 148 160q-34 148 -148 148h-25q-123 0 -147 -160zM555 863v-173h24q25 0 25 25v24q0 13 -12 13l12 24v87q0 98 111 98v37h-13q-147 -12 -147 -135zM1035 998v-135q0 -173 111 -173h49
q111 0 111 185v111h-49v-111q0 -12 12 -12q-31 -136 -74 -136h-24q-99 0 -99 136v135h-37zM320 949h25q99 0 99 -111q-15 -99 -99 -99h-25q-98 0 -98 111q15 99 98 99z" />
    <glyph glyph-name="w" unicode="w" horiz-adv-x="5623" 
d="M2288 1643h352v-748l-14 -30l29 -14q0 40 367 469h381v-15l-440 -528v-14q196 0 367 -338q44 -252 44 -381q-15 0 -15 -15l-29 15h-264l-30 -15q0 377 -205 470h-205v-455q-44 0 -44 -15l-30 15h-220l-29 -15l-15 30v1584zM4943 1628h352v-308h235v-352h-235v-293
q0 -272 206 -308h14v-220l15 -74h-15l15 -29v-29q-403 0 -557 410q-30 328 -30 1057v146zM2083 1349v-161q0 -73 15 -220h-74q-161 0 -161 -235v-704l-29 15h-294l-29 -15v690q0 450 381 586q59 30 191 44zM645 1335q514 0 675 -558v-132q0 -478 -572 -630h-117
q-444 0 -616 484q-15 57 -15 117v147q0 276 352 498q157 74 293 74zM3916 1320v-543q0 -423 220 -440h30q249 0 249 367q-14 239 -14 425v176h352v-733q0 -374 -323 -513q-69 -44 -235 -59q-493 0 -601 469q-15 572 -15 822l29 14h279zM337 689q39 -352 323 -352
q323 69 323 323q0 280 -294 337h-88q-200 0 -264 -308z" />
    <glyph glyph-name="x" unicode="x" horiz-adv-x="1683" 
d="M1166 1713q193 0 270 -190q15 -26 15 -58v-58q0 -180 -226 -263h-66q-192 0 -270 226v81q0 170 197 247q29 15 80 15zM656 1611q137 0 197 -160q7 -29 7 -59q0 -133 -160 -197q-22 0 -51 -7q-204 46 -204 190v43q0 128 160 183zM241 1560q135 0 167 -175
q-33 -168 -160 -168h-7q-175 21 -175 161q21 182 175 182zM233 1181h29q90 0 183 -117q85 88 211 88q163 0 248 -161h7q129 102 255 102q268 0 379 -291q15 -58 15 -139v-663h-780v350h-416v182h-364v372q0 201 146 262q50 15 87 15z" />
    <glyph glyph-name="y" unicode="y" horiz-adv-x="6176" 
d="M950 1503h28q227 -39 227 -227q-54 -241 -227 -241h-28q-187 0 -227 255q0 170 227 213zM510 1418h43q156 -23 156 -156v-28q0 -131 -184 -156q-95 0 -156 113v85q28 142 141 142zM1503 1404q57 0 57 -71h14q59 57 142 57h85q71 -34 71 -71q54 50 156 85q198 0 198 -241
v-156q0 -170 -71 -170q-85 0 -85 198v213q0 20 -42 42h-15q-113 0 -113 -127v-227q0 -80 -71 -99q-65 27 -71 56v270q0 108 -57 127h-14q-113 0 -113 -241v-156q-6 -29 -71 -56q-71 19 -71 99v411q29 57 71 57zM2382 1404q66 0 170 -397q24 0 142 368l57 29q56 -22 56 -43
v-14q-198 -709 -354 -709h-71q-74 0 -85 43v42q0 28 156 43q0 32 42 85q-184 429 -184 496q14 57 71 57zM3091 1404q227 -24 227 -156l-43 -29h-42q-86 85 -142 85h-43q-20 0 -42 -42v-14q4 -36 298 -128q42 -71 42 -99q0 -184 -269 -184q-177 0 -213 170l57 42h14
q94 -113 156 -113h28q85 0 85 85q-56 42 -269 99q-57 60 -57 114v14q0 130 213 156zM3516 1404q71 -23 71 -85q68 71 156 71h57q184 -44 184 -227v-85q-33 -241 -241 -241q-87 16 -156 85v-185q0 -76 -56 -99h-29q-57 23 -57 99v567q0 80 71 100zM4353 1404q227 0 227 -256
q0 -154 14 -283l-57 -28q-14 0 -99 70q-119 -70 -199 -70q-170 31 -170 156v14q0 142 326 184q43 0 43 28q0 85 -99 85q-76 0 -185 -113q-56 21 -56 43v56q65 114 255 114zM4963 1404q156 0 241 -156q-28 -65 -57 -71h-28q-90 113 -156 113q-124 0 -142 -184
q0 -137 127 -156h15q70 0 156 113l28 15q57 -15 57 -85q0 -118 -256 -156q-240 0 -269 297q0 232 284 270zM5572 1404q256 -47 256 -227q-29 -85 -57 -85h-43q-92 0 -283 -14v-15q18 -127 127 -127q71 0 185 99h14q42 0 42 -57q-64 -141 -255 -141q-255 42 -255 241v85
q0 210 269 241zM184 1375h57q99 -54 99 -156q-47 -127 -156 -127q-96 24 -127 99v99q49 85 127 85zM5445 1177v-14h241v14q-19 127 -128 127q-91 0 -113 -127zM3587 1092q38 -142 142 -142q94 0 128 170q-23 170 -128 170h-43q-75 0 -99 -198zM4211 1021v-28q0 -23 57 -57
h28q142 0 142 156v14q-227 -28 -227 -85zM199 1078q97 0 155 -100q107 71 185 71q198 -33 198 -127h14q98 71 185 71h57q236 0 297 -312v-582h-652v298h-340v142h-298v354q0 147 199 185zM2410 525v-284q0 -71 57 -71v-57l-71 -14q-22 0 -56 57v354zM3474 525h14l71 -15v-56
q-85 0 -85 -57h71v-57q-71 0 -71 -28q0 -14 14 -14l-14 -29v-156h-71v227h-57v29q57 37 57 71q0 44 71 85zM4296 525l57 -15v-56q-85 0 -85 -29v-28h71v-57h-71v-227h-71v227h-57v57h57v71q23 57 99 57zM4636 525q57 -22 57 -43v-14q0 -20 -42 -43h-15q-20 0 -42 43z
M5544 525v-185q0 -14 14 -14l-14 -28q0 -14 14 -14l-14 -29v-28l14 -99l-28 -15h-29q-14 0 -14 15q-58 -29 -85 -29q-85 29 -85 114v71q0 77 71 113h85v113zM1701 397h71q85 -9 85 -43v-127l15 -99l-57 -29l-14 29l-71 -29q-85 0 -85 100q0 85 99 85h43v56h-71l-29 -14
l-14 28v15q5 28 28 28zM2098 397q15 0 15 -14l71 14h42q57 -23 57 -99v-85q0 -114 -114 -114q-27 14 -42 14v-113h-71v312l-14 71q7 0 56 14zM2538 397h71q85 -9 85 -43v-127l14 -99l-57 -29l-14 29q-71 -15 -71 -29q-85 0 -85 100q0 85 100 85h42v56h-71l-28 -14l-14 28v15
q4 28 28 28zM2836 397h56q71 -4 71 -28q-14 -28 -14 -43l-99 14l-14 -71v-70q4 -29 28 -29h43l28 14l28 -56q-56 -29 -99 -29q-113 0 -113 170q0 75 85 128zM3063 397h85q71 -32 71 -142v-14l-71 -14h-85v-28q4 -29 28 -29h28l71 14l14 -28v-14q0 -33 -99 -43
q-108 0 -127 142v14q0 84 85 142zM3644 397h85q85 -45 85 -156q-14 -142 -142 -142q-113 24 -113 170q0 75 85 128zM3885 397h14l43 -28q4 28 28 28h57v-43l-85 -56v-185h-71v100l-14 170zM4395 397h43v-28l43 28h56v-43l-85 -56v-185h-71v128l-14 142zM4580 397h56l29 -14
q0 14 14 14v-284h-71v227h-57v29q5 28 29 28zM4863 397h43q71 -36 71 -113v-29q0 -28 -29 -28h-127v-28q4 -29 28 -29h71l28 14l29 -56q-91 -29 -114 -29q-108 0 -127 156q24 142 127 142zM5048 397h56v-28l43 28h71q20 0 42 -43v-241h-71v199q0 28 -28 28h-14
q-28 -4 -28 -28v-128l-15 -28h15q-15 -28 -15 -43h-71v241l-14 29zM5714 397h57q28 -4 28 -28v-15l-14 -28l-28 14h-43q-28 -4 -28 -28v-14q113 0 127 -114q-29 -85 -113 -85q-85 14 -85 43v42h14q71 0 71 -28q27 14 42 14v14q-127 78 -127 128v14q20 71 99 71zM2127 312
v-142l57 -14l28 43v70l-14 71h-43q-28 -4 -28 -28zM3063 312v-28h71v56h-43q-28 -4 -28 -28zM3658 340l-14 -71v-70q4 -29 28 -29h29q28 0 28 29v70l-14 71h-57zM4821 312v-28h85v14q-14 27 -14 42h-43q-28 -4 -28 -28zM5388 298v-57q0 -39 28 -85q25 14 57 14v170h-43
q-20 0 -42 -42zM1716 199v-15q4 -28 28 -28h14q29 0 29 28v57h-15q-56 -21 -56 -42zM2552 199v-15q5 -28 29 -28h14q28 0 28 28v57h-14q-57 -21 -57 -42z" />
    <glyph glyph-name="z" unicode="z" horiz-adv-x="5564" 
d="M672 1652q168 -13 188 -13v-14q0 -41 -14 -255h-13l-81 14h-40q-121 0 -121 -162v-80h269v-269h-269v-846h-376v846h-215v269h228v94q0 416 444 416zM1048 1625h376v-1598h-376v1598zM3426 1625h376v-953h13l296 470h403v-14l-363 -497l403 -604h-457l-282 551h-13v-551
h-376v1598zM1746 1599h377v-256q0 -26 -27 -26h-350v282zM2955 1169q166 0 309 -67l-26 -283q-104 68 -229 68q-195 0 -268 -202q-14 -52 -14 -107q0 -263 309 -296h27q77 0 201 54v-215l14 -27h-14l14 -27q0 -40 -309 -67q-465 0 -605 416q-13 14 -27 175q0 505 618 578z
M5347 1169l80 -14h54q-13 -158 -13 -228v-94l-68 13h-80q-220 0 -255 -309v-510h-350q-27 0 -27 27q0 13 14 13l-14 94v779q0 49 14 121q-14 23 -14 67l27 14h296q27 -4 27 -27v-134l-14 -27l27 -14q100 229 296 229zM1746 1142h350q27 -4 27 -27v-1088h-377v1115z" />
    <glyph glyph-name="braceleft" unicode="{" 
 />
    <glyph glyph-name="bar" unicode="|" 
 />
    <glyph glyph-name="braceright" unicode="}" 
 />
    <glyph glyph-name="asciitilde" unicode="~" 
 />
    <glyph glyph-name="exclamdown" unicode="&#xa1;" horiz-adv-x="672" 
 />
    <glyph glyph-name="cent" unicode="&#xa2;" horiz-adv-x="1139" 
 />
    <glyph glyph-name="sterling" unicode="&#xa3;" 
 />
    <glyph glyph-name="currency" unicode="&#xa4;" 
 />
    <glyph glyph-name="yen" unicode="&#xa5;" horiz-adv-x="1262" 
 />
    <glyph glyph-name="brokenbar" unicode="&#xa6;" 
 />
    <glyph glyph-name="section" unicode="&#xa7;" 
 />
    <glyph glyph-name="dieresis" unicode="&#xa8;" horiz-adv-x="1024" 
 />
    <glyph glyph-name="copyright" unicode="&#xa9;" horiz-adv-x="1674" 
 />
    <glyph glyph-name="ordfeminine" unicode="&#xaa;" horiz-adv-x="648" 
 />
    <glyph glyph-name="guillemotleft" unicode="&#xab;" horiz-adv-x="944" 
 />
    <glyph glyph-name="logicalnot" unicode="&#xac;" 
 />
    <glyph glyph-name="registered" unicode="&#xae;" horiz-adv-x="1674" 
 />
    <glyph glyph-name="macron" unicode="&#xaf;" horiz-adv-x="670" 
 />
    <glyph glyph-name="degree" unicode="&#xb0;" horiz-adv-x="674" 
 />
    <glyph glyph-name="plusminus" unicode="&#xb1;" 
 />
    <glyph glyph-name="uni00B2" unicode="&#xb2;" 
 />
    <glyph glyph-name="uni00B3" unicode="&#xb3;" 
 />
    <glyph glyph-name="acute" unicode="&#xb4;" horiz-adv-x="1024" 
 />
    <glyph glyph-name="mu" unicode="&#xb5;" horiz-adv-x="1180" 
 />
    <glyph glyph-name="paragraph" unicode="&#xb6;" horiz-adv-x="1024" 
 />
    <glyph glyph-name="periodcentered" unicode="&#xb7;" horiz-adv-x="508" 
 />
    <glyph glyph-name="periodcentered" unicode="&#x2219;" horiz-adv-x="508" 
 />
    <glyph glyph-name="cedilla" unicode="&#xb8;" horiz-adv-x="1024" 
 />
    <glyph glyph-name="uni00B9" unicode="&#xb9;" 
 />
    <glyph glyph-name="ordmasculine" unicode="&#xba;" horiz-adv-x="718" 
 />
    <glyph glyph-name="guillemotright" unicode="&#xbb;" horiz-adv-x="944" 
 />
    <glyph glyph-name="onequarter" unicode="&#xbc;" horiz-adv-x="1708" 
 />
    <glyph glyph-name="onehalf" unicode="&#xbd;" horiz-adv-x="1964" 
 />
    <glyph glyph-name="threequarters" unicode="&#xbe;" horiz-adv-x="1708" 
 />
    <glyph glyph-name="questiondown" unicode="&#xbf;" horiz-adv-x="748" 
 />
    <glyph glyph-name="Agrave" unicode="&#xc0;" horiz-adv-x="1540" 
 />
    <glyph glyph-name="Aacute" unicode="&#xc1;" horiz-adv-x="1540" 
 />
    <glyph glyph-name="Acircumflex" unicode="&#xc2;" horiz-adv-x="1540" 
 />
    <glyph glyph-name="Atilde" unicode="&#xc3;" horiz-adv-x="1540" 
 />
    <glyph glyph-name="Adieresis" unicode="&#xc4;" horiz-adv-x="1540" 
 />
    <glyph glyph-name="Aring" unicode="&#xc5;" horiz-adv-x="1540" 
 />
    <glyph glyph-name="AE" unicode="&#xc6;" horiz-adv-x="2118" 
 />
    <glyph glyph-name="Ccedilla" unicode="&#xc7;" horiz-adv-x="1399" 
 />
    <glyph glyph-name="Egrave" unicode="&#xc8;" horiz-adv-x="1151" 
 />
    <glyph glyph-name="Eacute" unicode="&#xc9;" horiz-adv-x="1151" 
 />
    <glyph glyph-name="Ecircumflex" unicode="&#xca;" horiz-adv-x="1151" 
 />
    <glyph glyph-name="Edieresis" unicode="&#xcb;" horiz-adv-x="1151" 
 />
    <glyph glyph-name="Igrave" unicode="&#xcc;" horiz-adv-x="657" 
 />
    <glyph glyph-name="Iacute" unicode="&#xcd;" horiz-adv-x="657" 
 />
    <glyph glyph-name="Icircumflex" unicode="&#xce;" horiz-adv-x="657" 
 />
    <glyph glyph-name="Idieresis" unicode="&#xcf;" horiz-adv-x="657" 
 />
    <glyph glyph-name="Eth" unicode="&#xd0;" horiz-adv-x="1518" 
 />
    <glyph glyph-name="Ntilde" unicode="&#xd1;" horiz-adv-x="1554" 
 />
    <glyph glyph-name="Ograve" unicode="&#xd2;" horiz-adv-x="1614" 
 />
    <glyph glyph-name="Oacute" unicode="&#xd3;" horiz-adv-x="1614" 
 />
    <glyph glyph-name="Ocircumflex" unicode="&#xd4;" horiz-adv-x="1614" 
 />
    <glyph glyph-name="Otilde" unicode="&#xd5;" horiz-adv-x="1614" 
 />
    <glyph glyph-name="Odieresis" unicode="&#xd6;" horiz-adv-x="1614" 
 />
    <glyph glyph-name="multiply" unicode="&#xd7;" 
 />
    <glyph glyph-name="Oslash" unicode="&#xd8;" horiz-adv-x="1614" 
 />
    <glyph glyph-name="Ugrave" unicode="&#xd9;" horiz-adv-x="1501" 
 />
    <glyph glyph-name="Uacute" unicode="&#xda;" horiz-adv-x="1501" 
 />
    <glyph glyph-name="Ucircumflex" unicode="&#xdb;" horiz-adv-x="1501" 
 />
    <glyph glyph-name="Udieresis" unicode="&#xdc;" horiz-adv-x="1501" 
 />
    <glyph glyph-name="Yacute" unicode="&#xdd;" horiz-adv-x="1233" 
 />
    <glyph glyph-name="Thorn" unicode="&#xde;" horiz-adv-x="1120" 
 />
    <glyph glyph-name="germandbls" unicode="&#xdf;" horiz-adv-x="1251" 
 />
    <glyph glyph-name="agrave" unicode="&#xe0;" horiz-adv-x="922" 
 />
    <glyph glyph-name="aacute" unicode="&#xe1;" horiz-adv-x="922" 
 />
    <glyph glyph-name="acircumflex" unicode="&#xe2;" horiz-adv-x="922" 
 />
    <glyph glyph-name="atilde" unicode="&#xe3;" horiz-adv-x="922" 
 />
    <glyph glyph-name="adieresis" unicode="&#xe4;" horiz-adv-x="922" 
 />
    <glyph glyph-name="aring" unicode="&#xe5;" horiz-adv-x="922" 
 />
    <glyph glyph-name="ae" unicode="&#xe6;" horiz-adv-x="1454" 
 />
    <glyph glyph-name="ccedilla" unicode="&#xe7;" horiz-adv-x="905" 
 />
    <glyph glyph-name="egrave" unicode="&#xe8;" horiz-adv-x="909" 
 />
    <glyph glyph-name="eacute" unicode="&#xe9;" horiz-adv-x="909" 
 />
    <glyph glyph-name="ecircumflex" unicode="&#xea;" horiz-adv-x="909" 
 />
    <glyph glyph-name="edieresis" unicode="&#xeb;" horiz-adv-x="909" 
 />
    <glyph glyph-name="igrave" unicode="&#xec;" horiz-adv-x="514" 
 />
    <glyph glyph-name="iacute" unicode="&#xed;" horiz-adv-x="514" 
 />
    <glyph glyph-name="icircumflex" unicode="&#xee;" horiz-adv-x="514" 
 />
    <glyph glyph-name="idieresis" unicode="&#xef;" horiz-adv-x="514" 
 />
    <glyph glyph-name="eth" unicode="&#xf0;" horiz-adv-x="1139" 
 />
    <glyph glyph-name="ntilde" unicode="&#xf1;" horiz-adv-x="1108" 
 />
    <glyph glyph-name="ograve" unicode="&#xf2;" horiz-adv-x="1010" 
 />
    <glyph glyph-name="oacute" unicode="&#xf3;" horiz-adv-x="1010" 
 />
    <glyph glyph-name="ocircumflex" unicode="&#xf4;" horiz-adv-x="1010" 
 />
    <glyph glyph-name="otilde" unicode="&#xf5;" horiz-adv-x="1010" 
 />
    <glyph glyph-name="odieresis" unicode="&#xf6;" horiz-adv-x="1010" 
 />
    <glyph glyph-name="divide" unicode="&#xf7;" 
 />
    <glyph glyph-name="oslash" unicode="&#xf8;" horiz-adv-x="1010" 
 />
    <glyph glyph-name="ugrave" unicode="&#xf9;" horiz-adv-x="1059" 
 />
    <glyph glyph-name="uacute" unicode="&#xfa;" horiz-adv-x="1059" 
 />
    <glyph glyph-name="ucircumflex" unicode="&#xfb;" horiz-adv-x="1059" 
 />
    <glyph glyph-name="udieresis" unicode="&#xfc;" horiz-adv-x="1059" 
 />
    <glyph glyph-name="yacute" unicode="&#xfd;" horiz-adv-x="868" 
 />
    <glyph glyph-name="thorn" unicode="&#xfe;" horiz-adv-x="1010" 
 />
    <glyph glyph-name="ydieresis" unicode="&#xff;" horiz-adv-x="868" 
 />
    <glyph glyph-name="dotlessi" unicode="&#x131;" horiz-adv-x="514" 
 />
    <glyph glyph-name="circumflex" unicode="&#x2c6;" horiz-adv-x="1024" 
 />
    <glyph glyph-name="caron" unicode="&#x2c7;" horiz-adv-x="1024" 
 />
    <glyph glyph-name="uni02C9" unicode="&#x2c9;" horiz-adv-x="1024" 
 />
    <glyph glyph-name="breve" unicode="&#x2d8;" horiz-adv-x="1024" 
 />
    <glyph glyph-name="dotaccent" unicode="&#x2d9;" horiz-adv-x="1024" 
 />
    <glyph glyph-name="ring" unicode="&#x2da;" horiz-adv-x="1024" 
 />
    <glyph glyph-name="ogonek" unicode="&#x2db;" horiz-adv-x="1024" 
 />
    <glyph glyph-name="tilde" unicode="&#x2dc;" horiz-adv-x="1024" 
 />
    <glyph glyph-name="hungarumlaut" unicode="&#x2dd;" horiz-adv-x="1024" 
 />
    <glyph glyph-name="endash" unicode="&#x2013;" horiz-adv-x="1108" 
 />
    <glyph glyph-name="emdash" unicode="&#x2014;" horiz-adv-x="2048" 
 />
    <glyph glyph-name="quoteleft" unicode="&#x2018;" horiz-adv-x="557" 
 />
    <glyph glyph-name="quoteright" unicode="&#x2019;" horiz-adv-x="557" 
 />
    <glyph glyph-name="quotesinglbase" unicode="&#x201a;" horiz-adv-x="557" 
 />
    <glyph glyph-name="quotedblleft" unicode="&#x201c;" horiz-adv-x="910" 
 />
    <glyph glyph-name="quotedblright" unicode="&#x201d;" horiz-adv-x="910" 
 />
    <glyph glyph-name="quotedblbase" unicode="&#x201e;" horiz-adv-x="910" 
 />
    <glyph glyph-name="dagger" unicode="&#x2020;" 
 />
    <glyph glyph-name="daggerdbl" unicode="&#x2021;" 
 />
    <glyph glyph-name="bullet" unicode="&#x2022;" horiz-adv-x="1024" 
 />
    <glyph glyph-name="ellipsis" unicode="&#x2026;" horiz-adv-x="2048" 
 />
    <glyph glyph-name="guilsinglleft" unicode="&#x2039;" horiz-adv-x="631" 
 />
    <glyph glyph-name="guilsinglright" unicode="&#x203a;" horiz-adv-x="631" 
 />
    <glyph glyph-name="fraction" unicode="&#x2044;" horiz-adv-x="342" 
 />
    <glyph glyph-name="fraction" unicode="&#x2215;" horiz-adv-x="342" 
 />
    <glyph glyph-name="franc" unicode="&#x20a3;" 
 />
    <glyph glyph-name="lira" unicode="&#x20a4;" 
 />
    <glyph glyph-name="peseta" unicode="&#x20a7;" horiz-adv-x="2028" 
 />
    <glyph glyph-name="Euro" unicode="&#x20ac;" 
 />
    <glyph glyph-name="afii61352" unicode="&#x2116;" horiz-adv-x="2271" 
 />
    <glyph glyph-name="trademark" unicode="&#x2122;" horiz-adv-x="1497" 
 />
    <glyph glyph-name="partialdiff" unicode="&#x2202;" 
 />
    <glyph glyph-name="Delta" unicode="&#x2206;" horiz-adv-x="1081" 
 />
    <glyph glyph-name="product" unicode="&#x220f;" horiz-adv-x="1515" 
 />
    <glyph glyph-name="summation" unicode="&#x2211;" horiz-adv-x="1206" 
 />
    <glyph glyph-name="minus" unicode="&#x2212;" 
 />
    <glyph glyph-name="radical" unicode="&#x221a;" 
 />
    <glyph glyph-name="infinity" unicode="&#x221e;" 
 />
    <glyph glyph-name="integral" unicode="&#x222b;" horiz-adv-x="665" 
 />
    <glyph glyph-name="approxequal" unicode="&#x2248;" 
 />
    <glyph glyph-name="lessequal" unicode="&#x2264;" 
 />
    <glyph glyph-name="greaterequal" unicode="&#x2265;" 
 />
    <glyph glyph-name="uniF001" unicode="&#xf001;" horiz-adv-x="1073" 
 />
    <glyph glyph-name="uniF001" unicode="&#xfb01;" horiz-adv-x="1073" 
 />
    <glyph glyph-name="uniF002" unicode="&#xf002;" horiz-adv-x="1081" 
 />
    <glyph glyph-name="uniF002" unicode="&#xfb02;" horiz-adv-x="1081" 
 />
  </font>
</defs>
</svg>
